<?xml version="1.0" encoding="UTF-8" standalone="no"?>
<svg
   xmlns:dc="http://purl.org/dc/elements/1.1/"
   xmlns:cc="http://creativecommons.org/ns#"
   xmlns:rdf="http://www.w3.org/1999/02/22-rdf-syntax-ns#"
   xmlns:svg="http://www.w3.org/2000/svg"
   xmlns="http://www.w3.org/2000/svg"
   xmlns:sodipodi="http://sodipodi.sourceforge.net/DTD/sodipodi-0.dtd"
   xmlns:inkscape="http://www.inkscape.org/namespaces/inkscape"
   id="svg2"
   sodipodi:docname="fire_inset.svg"
   viewBox="0 0 130 156"
   version="1.1"
   inkscape:version="1.0.1 (3bc2e813f5, 2020-09-07)">
  <defs
     id="defs843" />
  <sodipodi:namedview
     id="namedview8"
     bordercolor="#666666"
     inkscape:pageshadow="2"
     guidetolerance="10"
     pagecolor="#ffffff"
     gridtolerance="10"
     inkscape:window-maximized="1"
     inkscape:zoom="5.0743655"
     objecttolerance="10"
     borderopacity="1"
     inkscape:current-layer="svg2"
     inkscape:cx="49.04261"
     inkscape:cy="78.03161"
     inkscape:window-y="-8"
     inkscape:window-x="-8"
     inkscape:window-width="1920"
     showgrid="false"
     inkscape:pageopacity="0"
     inkscape:window-height="1017"
     inkscape:document-rotation="0" />
  <path
     id="path4"
     sodipodi:type="inkscape:offset"
     inkscape:radius="-3.1466978"
     inkscape:original="M 56.800781 0 C 37.200781 11.4 32.400391 26.799219 32.400391 41.199219 C 32.400391 55.599219 37.400391 69.000391 37.400391 76.400391 C 37.400391 84.600391 30.800391 89.400391 24.400391 89.400391 C 14.800391 89.400391 10.400391 83.000781 10.400391 64.800781 C 4.0003906 74.000781 0 86.000781 0 100.80078 C 0 125.20078 14.599609 149.6 53.599609 156 C 28.599609 143.8 23 125.80078 23 106.80078 C 26.2 120.40078 34.199219 126.80078 42.199219 126.80078 C 51.599219 126.80078 61.400391 117 61.400391 99 C 61.400391 90.6 59.199609 80.199219 53.599609 68.199219 C 87.799609 94.199219 66.599219 131.59961 86.199219 131.59961 C 89.399219 131.59961 96.000391 129.99961 102.40039 118.59961 C 102.40039 133.19961 97.599609 146.2 71.599609 156 C 102.39961 156 130 134.79961 130 105.59961 C 130 95.799609 126.99961 84.399609 123.59961 78.599609 C 123.59961 95.399609 120.20078 105.59961 108.80078 105.59961 C 102.40078 105.59961 95.800781 100.79961 95.800781 92.599609 C 95.800781 82.599609 102.59961 71.599219 102.59961 59.199219 C 102.59961 51.399219 99.799609 43.600781 93.599609 36.800781 C 93.599609 54.200781 84.000781 60.199219 74.800781 60.199219 C 63.400781 60.199219 50.599609 50.600391 50.599609 29.400391 C 50.599609 21.400391 52.400781 11.6 56.800781 0 z "
     d="M 50.830078,7.9824219 C 38.593014,17.912206 35.546875,29.611583 35.546875,41.199219 c 0,6.835799 1.197566,13.57492 2.435547,19.591797 1.237981,6.016876 2.564453,11.200659 2.564453,15.609375 0,9.888472 -8.173135,16.146484 -16.146484,16.146484 -5.499224,0 -10.485503,-2.26274 -13.306641,-7.015625 C 9.5620454,82.950726 8.5966923,79.754786 8.0019531,75.933594 5.0047468,82.973889 3.1464844,91.166465 3.1464844,100.80078 c 0,11.5724 3.4312157,22.98103 11.4179686,32.30274 5.091208,5.94218 12.091455,11.07281 21.384766,14.82812 -4.181093,-3.87296 -7.409691,-8.06046 -9.794922,-12.48828 -4.853821,-9.01039 -6.300781,-18.83345 -6.300781,-28.64258 a 3.1470124,3.1470124 0 0 1 6.208984,-0.7207 c 2.982629,12.67617 9.814958,17.57422 16.136719,17.57422 7.212759,0 16.054687,-7.79657 16.054687,-24.6543 0,-7.850381 -2.066909,-17.81581 -7.505859,-29.470703 a 3.1470124,3.1470124 0 0 1 4.755859,-3.835938 c 17.928062,13.629521 21.546222,30.763392 22.998047,43.601561 0.725913,6.41909 1.065477,11.86759 2.128906,15.06055 0.531715,1.59648 1.156986,2.53739 1.890625,3.11523 0.73364,0.57784 1.728108,0.98242 3.677735,0.98242 2.1511,0 7.447654,-0.69032 13.457031,-11.39453 a 3.1470124,3.1470124 0 0 1 5.89063,1.54102 c 0,7.6449 -1.30552,15.34973 -6.226568,22.31641 -2.280638,3.22867 -5.386027,6.23142 -9.291015,9.05078 20.930183,-6.35995 36.824223,-23.0924 36.824223,-44.36719 0,-3.88982 -0.62508,-8.119919 -1.48438,-12.132813 -0.51629,2.275789 -1.14448,4.431797 -2.06641,6.316406 -2.66698,5.451897 -7.86346,8.962887 -14.50195,8.962887 -7.97335,0 -16.146483,-6.25801 -16.146483,-16.146481 0,-11.426257 6.798828,-22.150598 6.798828,-33.40039 0,-4.72519 -1.230796,-9.395749 -3.683594,-13.861328 -1.099432,4.982244 -3.081254,9.001216 -5.855469,11.873047 -4.216749,4.365123 -9.829394,6.134765 -15.113281,6.134765 -13.166351,0 -27.347656,-11.478601 -27.347656,-33.945312 0,-6.218915 1.050231,-13.366111 3.376953,-21.4179691 z" />
  <metadata
     id="metadata6">
    <rdf:RDF>
      <cc:Work>
        <dc:format>image/svg+xml</dc:format>
        <dc:type
           rdf:resource="http://purl.org/dc/dcmitype/StillImage" />
        <cc:license
           rdf:resource="http://creativecommons.org/licenses/publicdomain/" />
        <dc:publisher>
          <cc:Agent
             rdf:about="http://openclipart.org/">
            <dc:title>Openclipart</dc:title>
          </cc:Agent>
        </dc:publisher>
      </cc:Work>
      <cc:License
         rdf:about="http://creativecommons.org/licenses/publicdomain/">
        <cc:permits
           rdf:resource="http://creativecommons.org/ns#Reproduction" />
        <cc:permits
           rdf:resource="http://creativecommons.org/ns#Distribution" />
        <cc:permits
           rdf:resource="http://creativecommons.org/ns#DerivativeWorks" />
      </cc:License>
    </rdf:RDF>
  </metadata>
</svg>
