<?xml version="1.0" encoding="UTF-8" standalone="no"?>
<svg
   xmlns:dc="http://purl.org/dc/elements/1.1/"
   xmlns:cc="http://creativecommons.org/ns#"
   xmlns:rdf="http://www.w3.org/1999/02/22-rdf-syntax-ns#"
   xmlns:svg="http://www.w3.org/2000/svg"
   xmlns="http://www.w3.org/2000/svg"
   xmlns:sodipodi="http://sodipodi.sourceforge.net/DTD/sodipodi-0.dtd"
   xmlns:inkscape="http://www.inkscape.org/namespaces/inkscape"
   id="svg2"
   sodipodi:docname="fire.svg"
   viewBox="0 0 130 156"
   version="1.1"
   inkscape:version="1.0.1 (3bc2e813f5, 2020-09-07)"
   width="130"
   height="156">
  <defs
     id="defs6" />
  <sodipodi:namedview
     id="namedview8"
     bordercolor="#666666"
     inkscape:pageshadow="2"
     guidetolerance="10"
     pagecolor="#ffffff"
     gridtolerance="10"
     inkscape:window-maximized="1"
     inkscape:zoom="0.63429568"
     objecttolerance="10"
     borderopacity="1"
     inkscape:current-layer="svg2"
     inkscape:cx="159.02346"
     inkscape:cy="-75.13266"
     inkscape:window-y="-8"
     inkscape:window-x="-8"
     inkscape:window-width="1920"
     showgrid="false"
     inkscape:pageopacity="0"
     inkscape:window-height="1017"
     inkscape:document-rotation="0"
     fit-margin-top="0"
     fit-margin-left="0"
     fit-margin-right="0"
     fit-margin-bottom="0" />
  <path
     id="path4"
     inkscape:connector-curvature="0"
     d="M 0,100.8 C 0,86 4,74 10.4,64.8 c 0,18.2 4.4,24.6 14,24.6 6.4,0 13,-4.8 13,-13 0,-7.4 -5,-20.8 -5,-35.2 0,-14.4 4.8,-29.8 24.4,-41.2 -4.4,11.6 -6.2,21.4 -6.2,29.4 0,21.2 12.8,30.8 24.2,30.8 9.2,0 18.8,-6 18.8,-23.4 6.2,6.8 9,14.6 9,22.4 0,12.4 -6.8,23.4 -6.8,33.4 0,8.2 6.6,13 13,13 11.4,0 14.8,-10.2 14.8,-27 3.4,5.8 6.4,17.2 6.4,27 0,29.2 -27.6,50.4 -58.4,50.4 26,-9.8 30.8,-22.8 30.8,-37.4 -6.4,11.4 -13,13 -16.2,13 -19.6,0 1.6,-37.4 -32.6,-63.4 5.6,12 7.8,22.4 7.8,30.8 0,18 -9.8,27.8 -19.2,27.8 -8,0 -16,-6.4 -19.2,-20 0,19 5.6,37 30.6,49.2 C 14.6,149.6 0,125.2 0,100.8 Z" />
  <metadata
     id="metadata6">
    <rdf:RDF>
      <cc:Work>
        <dc:format>image/svg+xml</dc:format>
        <dc:type
           rdf:resource="http://purl.org/dc/dcmitype/StillImage" />
        <cc:license
           rdf:resource="http://creativecommons.org/publicdomain/zero/1.0/" />
        <dc:publisher>
          <cc:Agent
             rdf:about="http://openclipart.org/">
            <dc:title>Openclipart</dc:title>
          </cc:Agent>
        </dc:publisher>
        <dc:title></dc:title>
      </cc:Work>
      <cc:License
         rdf:about="http://creativecommons.org/publicdomain/zero/1.0/">
        <cc:permits
           rdf:resource="http://creativecommons.org/ns#Reproduction" />
        <cc:permits
           rdf:resource="http://creativecommons.org/ns#Distribution" />
        <cc:permits
           rdf:resource="http://creativecommons.org/ns#DerivativeWorks" />
      </cc:License>
    </rdf:RDF>
  </metadata>
</svg>
