<?xml version="1.0" encoding="UTF-8" standalone="no"?>
<svg
   xmlns:dc="http://purl.org/dc/elements/1.1/"
   xmlns:cc="http://creativecommons.org/ns#"
   xmlns:rdf="http://www.w3.org/1999/02/22-rdf-syntax-ns#"
   xmlns:svg="http://www.w3.org/2000/svg"
   xmlns="http://www.w3.org/2000/svg"
   xmlns:sodipodi="http://sodipodi.sourceforge.net/DTD/sodipodi-0.dtd"
   xmlns:inkscape="http://www.inkscape.org/namespaces/inkscape"
   id="svg2"
   sodipodi:docname="fire_inset.svg"
   viewBox="0 0 130 156"
   version="1.1"
   inkscape:version="1.0.1 (3bc2e813f5, 2020-09-07)"
   width="130"
   height="156">
  <defs
     id="defs6" />
  <sodipodi:namedview
     id="namedview8"
     bordercolor="#666666"
     inkscape:pageshadow="2"
     guidetolerance="10"
     pagecolor="#ffffff"
     gridtolerance="10"
     inkscape:window-maximized="1"
     inkscape:zoom="5.0743654"
     objecttolerance="10"
     borderopacity="1"
     inkscape:current-layer="svg2"
     inkscape:cx="63.936327"
     inkscape:cy="79.044462"
     inkscape:window-y="-8"
     inkscape:window-x="-8"
     inkscape:window-width="1920"
     showgrid="false"
     inkscape:pageopacity="0"
     inkscape:window-height="1017"
     inkscape:document-rotation="0"
     fit-margin-top="0"
     fit-margin-left="0"
     fit-margin-right="0"
     fit-margin-bottom="0" />
  <path
     id="path4"
     d="m 56.023438,0.75 c -7.52095,4.4988452 -14.261714,10.648231 -18.36204,18.489633 -3.470861,6.514441 -4.944901,13.89695 -5.003449,21.215805 -0.142856,9.439603 2.029388,18.653138 3.923972,27.845886 0.71556,3.913808 1.668519,8.020484 0.544466,11.95282 -1.20745,4.479161 -5.087816,7.983718 -9.571337,9.015813 -2.938071,0.669719 -6.112454,0.472896 -8.911639,-0.661105 C 15.379853,87.284234 13.243302,84.170679 12.159105,80.928123 10.489054,76.009768 10.228433,70.755092 10.15625,65.601562 3.9842816,74.716698 0.91428301,85.674519 0.36094618,96.59819 c -0.52007476,8.73281 0.65142132,17.57007 4.10757452,25.64403 3.6974689,8.82336 10.1454373,16.43975 18.0519453,21.81999 8.778402,6.03781 19.030428,9.51312 29.45805,11.40459 -8.352294,-4.26794 -16.105092,-10.16931 -21.292931,-18.08807 -4.610033,-6.90453 -6.929398,-15.11123 -7.629242,-23.33023 -0.192105,-2.47068 -0.366327,-4.96907 -0.25743,-7.43969 0.09991,-1.00194 0.56069,0.42066 0.61355,0.8104 1.522002,6.07598 4.426741,12.1518 9.503553,15.95384 3.888204,2.95306 9.247533,4.07546 13.891808,2.37346 5.353398,-1.865 9.28279,-6.57222 11.459269,-11.62192 3.092011,-7.12491 3.388655,-15.178983 2.314021,-22.755425 -1.153739,-8.16036 -3.938559,-16.053164 -7.407481,-23.525788 -0.474646,-0.846576 0.582065,0.235125 0.894817,0.403177 7.096841,5.409423 12.979846,12.507427 16.5253,20.728055 3.262935,7.401429 4.571765,15.467931 5.327268,23.470161 0.498752,4.36475 0.666312,8.83192 2.031585,13.01876 0.754422,2.37133 2.394391,4.64819 4.867046,5.3957 3.055766,0.9954 6.584054,0.42282 9.377425,-1.23473 4.697351,-2.71548 7.872726,-7.33504 10.465036,-11.97606 0.0506,5.87779 -0.60426,11.91154 -3.178093,17.26702 -2.965856,6.3477 -8.335382,11.24671 -14.241879,14.84623 -3.879305,2.3855 -8.02115,4.30853 -12.25581,5.97269 15.344109,-0.30974 30.783132,-5.99267 41.969572,-16.64391 7.07245,-6.71025 12.22764,-15.51623 14.01333,-25.15155 1.48144,-7.62441 0.68671,-15.602174 -1.10045,-23.117109 -0.95773,-3.876458 -2.18861,-7.756803 -4.02503,-11.269077 -0.0873,5.786429 -0.39071,11.703055 -2.38665,17.190544 -1.23192,3.378142 -3.51734,6.587512 -6.92232,8.017072 -4.46871,1.87073 -9.93385,1.34759 -13.82775,-1.59824 -3.345431,-2.42821 -5.253814,-6.55989 -5.15417,-10.668338 0.08575,-6.10717 2.306933,-11.890041 3.986387,-17.67923 1.803313,-5.99044 3.268563,-12.218958 2.677553,-18.517667 -0.56333,-6.508806 -3.308987,-12.770233 -7.475367,-17.792426 -0.272707,-0.274642 -0.725917,-1.00933 -0.905168,-0.963056 -0.08139,5.686532 -1.239168,11.639797 -4.780146,16.23742 -2.971661,3.925781 -7.736741,6.275149 -12.612964,6.60619 C 69.532158,60.955933 62.58043,57.867048 58.040249,52.692396 53.187622,47.28137 50.942928,40.00654 50.469431,32.858702 49.867637,23.5354 51.788387,14.235514 54.634741,5.4022384 55.157125,3.7782424 55.726523,2.1701037 56.324219,0.57226562 56.223958,0.63151042 56.123698,0.69075521 56.023438,0.75 Z" />
  <metadata
     id="metadata6">
    <rdf:RDF>
      <cc:Work>
        <dc:format>image/svg+xml</dc:format>
        <dc:type
           rdf:resource="http://purl.org/dc/dcmitype/StillImage" />
        <cc:license
           rdf:resource="http://creativecommons.org/publicdomain/zero/1.0/" />
        <dc:publisher>
          <cc:Agent
             rdf:about="http://openclipart.org/">
            <dc:title>Openclipart</dc:title>
          </cc:Agent>
        </dc:publisher>
        <dc:title />
      </cc:Work>
      <cc:License
         rdf:about="http://creativecommons.org/publicdomain/zero/1.0/">
        <cc:permits
           rdf:resource="http://creativecommons.org/ns#Reproduction" />
        <cc:permits
           rdf:resource="http://creativecommons.org/ns#Distribution" />
        <cc:permits
           rdf:resource="http://creativecommons.org/ns#DerivativeWorks" />
      </cc:License>
    </rdf:RDF>
  </metadata>
</svg>
