<?xml version="1.0" encoding="UTF-8" standalone="no"?>
<svg
   xmlns:dc="http://purl.org/dc/elements/1.1/"
   xmlns:cc="http://creativecommons.org/ns#"
   xmlns:rdf="http://www.w3.org/1999/02/22-rdf-syntax-ns#"
   xmlns:svg="http://www.w3.org/2000/svg"
   xmlns="http://www.w3.org/2000/svg"
   xmlns:sodipodi="http://sodipodi.sourceforge.net/DTD/sodipodi-0.dtd"
   xmlns:inkscape="http://www.inkscape.org/namespaces/inkscape"
   id="svg3759"
   sodipodi:docname="medic_inset.svg"
   inkscape:export-filename="/home/joanna/gfx/vector/aiga/aiga_first_aid_.png"
   viewBox="0 0 362.68 362.64"
   sodipodi:version="0.32"
   inkscape:export-xdpi="49.629845"
   inkscape:output_extension="org.inkscape.output.svg.inkscape"
   inkscape:export-ydpi="49.629845"
   inkscape:version="1.0.1 (3bc2e813f5, 2020-09-07)"
   version="1.1"
   width="362.67999"
   height="362.64001">
  <defs
     id="defs8" />
  <sodipodi:namedview
     id="base"
     bordercolor="#666666"
     inkscape:pageshadow="2"
     inkscape:window-width="1920"
     pagecolor="#ffffff"
     inkscape:zoom="0.43415836"
     inkscape:window-x="-8"
     showgrid="false"
     borderopacity="1.0"
     inkscape:current-layer="g3769"
     inkscape:cx="305.25953"
     inkscape:cy="417.84947"
     inkscape:window-y="-8"
     inkscape:window-height="1009"
     inkscape:pageopacity="0.0"
     inkscape:document-rotation="0"
     inkscape:window-maximized="1"
     fit-margin-top="0"
     fit-margin-left="0"
     fit-margin-right="0"
     fit-margin-bottom="0" />
  <g
     id="g3769">
    <path
       id="path3771"
       style="fill:#000000"
       d="m 122.11914,118.64062 c 0,1.33334 0,2.66667 0,4 -39.373046,1e-5 -78.746093,0 -118.11914,0 0,39.19011 0,78.38021 0,117.57032 39.533203,0 79.066406,0 118.59961,0 0,39.47656 0,78.95312 0,118.42968 39.47982,10e-6 78.95963,0 118.43945,0 0,-39.47656 0,-78.95312 0,-118.42968 39.21354,0 78.42709,0 117.64063,0 0,-39.19011 0,-78.38021 0,-117.57032 -39.53321,1e-5 -79.06641,0 -118.59961,0 0,-39.54687 0,-79.093745 0,-118.64062 -39.32031,0 -78.64063,0 -117.96094,0 0,38.213542 0,76.427083 0,114.64062 z" />
  </g>
  <metadata
     id="metadata5">
    <rdf:RDF>
      <cc:Work>
        <dc:format>image/svg+xml</dc:format>
        <dc:type
           rdf:resource="http://purl.org/dc/dcmitype/StillImage" />
        <cc:license
           rdf:resource="http://creativecommons.org/publicdomain/zero/1.0/" />
        <dc:publisher>
          <cc:Agent
             rdf:about="http://openclipart.org/">
            <dc:title>Openclipart</dc:title>
          </cc:Agent>
        </dc:publisher>
        <dc:title>aiga first aid</dc:title>
        <dc:date>2006-12-26T00:00:00</dc:date>
        <dc:description />
        <dc:source>https://openclipart.org/detail/24961/-by--24961</dc:source>
        <dc:creator>
          <cc:Agent>
            <dc:title>Anonymous</dc:title>
          </cc:Agent>
        </dc:creator>
      </cc:Work>
      <cc:License
         rdf:about="http://creativecommons.org/publicdomain/zero/1.0/">
        <cc:permits
           rdf:resource="http://creativecommons.org/ns#Reproduction" />
        <cc:permits
           rdf:resource="http://creativecommons.org/ns#Distribution" />
        <cc:permits
           rdf:resource="http://creativecommons.org/ns#DerivativeWorks" />
      </cc:License>
    </rdf:RDF>
  </metadata>
</svg>
