<?xml version="1.0" encoding="UTF-8" standalone="no"?>
<svg
   xmlns:dc="http://purl.org/dc/elements/1.1/"
   xmlns:cc="http://creativecommons.org/ns#"
   xmlns:rdf="http://www.w3.org/1999/02/22-rdf-syntax-ns#"
   xmlns:svg="http://www.w3.org/2000/svg"
   xmlns="http://www.w3.org/2000/svg"
   xmlns:sodipodi="http://sodipodi.sourceforge.net/DTD/sodipodi-0.dtd"
   xmlns:inkscape="http://www.inkscape.org/namespaces/inkscape"
   version="1.0"
   width="1280.000000pt"
   height="1179.000000pt"
   viewBox="0 0 1280.000000 1179.000000"
   preserveAspectRatio="xMidYMid meet"
   id="svg49"
   sodipodi:docname="raven_inset.svg"
   inkscape:version="1.0.1 (3bc2e813f5, 2020-09-07)">
  <defs
     id="defs53" />
  <sodipodi:namedview
     pagecolor="#ffffff"
     bordercolor="#666666"
     borderopacity="1"
     objecttolerance="10"
     gridtolerance="10"
     guidetolerance="10"
     inkscape:pageopacity="0"
     inkscape:pageshadow="2"
     inkscape:window-width="2560"
     inkscape:window-height="1377"
     id="namedview51"
     showgrid="false"
     inkscape:zoom="0.61054688"
     inkscape:cx="538.04223"
     inkscape:cy="917.03007"
     inkscape:window-x="2552"
     inkscape:window-y="-8"
     inkscape:window-maximized="1"
     inkscape:current-layer="g47" />
  <metadata
     id="metadata41">
Created by potrace 1.15, written by Peter Selinger 2001-2017
<rdf:RDF>
  <cc:Work
     rdf:about="">
    <dc:format>image/svg+xml</dc:format>
    <dc:type
       rdf:resource="http://purl.org/dc/dcmitype/StillImage" />
  </cc:Work>
</rdf:RDF>
</metadata>
  <g
     transform="matrix(0.1,0,0,-0.1,0,1179)"
     fill="#000000"
     stroke="none"
     id="g47">
    <path
       id="path43"
       style="display:inline"
       d="m 11235.467,31.677734 c -9.708,1.185435 -19.282,3.259228 -28.789,5.513692 -8.884,2.144661 -17.71,4.519591 -26.502,7.011699 -0.305,0.08316 -1.155,0.329509 -1.668,0.475273 -7.247,2.073163 -14.492,4.163244 -21.643,6.552071 -0.255,0.08188 -1.138,0.378542 -1.635,0.543047 -21.712,7.246128 -43.092,15.634926 -64.247,24.437698 -1.868,0.781809 -3.736,1.563618 -5.604,2.345427 -0.247,0.101458 -1.105,0.468533 -1.587,0.672186 -1.53,0.651147 -3.37,1.428355 -4.706,2.000084 -6.294,2.694102 -12.577,5.41473 -18.84,8.181245 -0.58,0.26117 -1.463,0.64814 -2.159,0.957574 -44.059,19.53378 -87.421,40.59953 -130.423,62.35132 -18.759,9.50056 -37.578,19.23505 -56.109,28.96259 -42.053,22.09089 -83.78,44.79674 -125.252,67.95703 -0.959,0.54077 -2.152,1.20563 -3.201,1.79409 -46.209,25.85063 -92.088,52.28709 -137.69,79.19224 -1.335,0.79458 -2.869,1.69778 -4.28,2.53413 -17.075,10.09806 -34.11,20.26559 -51.105,30.49907 -2.584,1.55354 -5.309,3.20156 -7.948,4.79144 -3.409,2.0599 -7.036,4.26038 -10.434,6.31208 -64.859,39.31748 -129.222,79.66922 -192.886,121.0063 -8.797,5.70451 -17.658,11.50548 -26.478,17.28276 -1.209,0.7987 -2.618,1.72128 -3.904,2.56761 -25.81,16.94381 -51.489,34.087 -77.039,51.42018 -42.104,28.46676 -84.211,56.92987 -126.315,85.39893 -76.567,4.73321 -153.1322,9.49087 -229.7006,14.19831 -119.1145,7.19178 -238.3271,12.69029 -357.5775,17.0515 -131.856,4.83654 -263.7548,8.41695 -395.663,11.47942 -112.209,2.59956 -224.4246,4.79624 -336.6457,6.79569 -125.2921,2.21777 -250.5883,4.20282 -375.8868,6.02438 -160.2402,2.34956 -320.4836,4.47336 -480.7282,6.49179 -173.0852,2.18291 -346.172,4.23559 -519.2594,6.23574 -78.7852,0.9129 -157.5705,1.81491 -236.3543,2.83699 -121.7993,1.57096 -243.596,3.34122 -365.3886,5.36218 -71.7603,1.20449 -143.5191,2.50083 -215.2759,3.90095 -112.6637,2.21683 -225.4074,4.72496 -338.0886,7.62656 -59.5149,1.53872 -119.1456,3.20213 -178.6998,4.97725 -53.0192,1.59835 -106.1711,3.2969 -159.2352,5.12736 -29.6577,1.02683 -59.4333,2.09146 -89.1342,3.19502 -40.1996,1.49811 -80.5881,3.09783 -120.8137,4.75698 -20.6695,0.85838 -41.3375,1.75163 -62.0051,2.65277 -29.691,1.30271 -59.5158,2.66251 -89.2537,4.08526 -25.9125,1.22842 -51.8221,2.51726 -77.7307,3.8249 -2.0289,0.10792 -4.2609,0.2211 -6.368,0.33105 -59.535,3.04791 -119.0562,6.36274 -178.5617,9.94043 -6.312,0.38673 -12.7763,0.77809 -19.1469,1.1666 -31.7303,1.93791 -63.5728,3.98583 -95.3383,6.09375 -14.7529,0.99766 -29.7224,1.99624 -44.5569,3.03406 -17.6357,1.21169 -35.2677,2.47377 -52.8993,3.7427 -25.3378,1.84603 -50.8413,3.74218 -76.2353,5.70943 -25.279,1.95791 -50.6998,3.97792 -76.027,6.05979 -23.1688,1.9058 -46.4328,3.87006 -69.6363,5.88327 -16.8437,1.4609 -33.7952,2.96475 -50.688,4.48552 -6.0616,0.54589 -12.3316,1.12231 -18.3606,1.66473 -21.4923,1.97701 -43.0752,3.99105 -64.502,6.04101 -35.0418,3.369 -70.1151,6.7723 -105.1525,10.37174 -6.2538,0.64067 -12.7168,1.31479 -19.0542,1.96875 -15.2138,1.58043 -30.4232,3.20345 -45.6312,4.8392 -1.1986,0.13373 -2.6509,0.28974 -3.9471,0.43203 -30.1785,3.27665 -60.3441,6.67205 -90.4943,10.20078 -1.9505,0.22737 -4.1049,0.48372 -6.1339,0.72224 -3.7275,0.43959 -7.455,0.87918 -11.1825,1.31878 -1.4042,0.17125 -3.0449,0.3651 -4.54,0.54504 -25.7539,3.06613 -51.4941,6.24572 -77.2237,9.50964 -0.8473,0.10508 -1.9839,0.25424 -2.9423,0.37625 -5.3923,0.69365 -10.9404,1.40248 -16.2354,2.08664 -6.4141,0.83594 -12.8281,1.67188 -19.2422,2.50782 -0.9874,0.12692 -2.2472,0.29741 -3.3392,0.44107 -24.5033,3.23145 -48.993,6.56544 -73.4694,9.99447 -0.8457,0.11698 -1.9804,0.2799 -2.9372,0.41452 -5.418,0.76678 -10.8361,1.53355 -16.2542,2.30033 -0.631,0.0942 -1.5839,0.22845 -2.3384,0.33801 -18.4076,2.63496 -36.8064,5.33055 -55.1967,8.08386 -0.7377,0.11494 -1.7799,0.26984 -2.6345,0.40013 -18.2873,2.75135 -36.5642,5.57141 -54.8323,8.44753 -0.5539,0.0845 -1.4489,0.23019 -2.1336,0.33814 -20.7494,3.28439 -41.4846,6.65805 -62.2063,10.11303 -1.5657,0.25993 -3.3529,0.56402 -5.0038,0.84092 -46.3641,7.78121 -92.6474,16.04588 -138.8282,24.85049 -1.1503,0.22452 -2.5535,0.49013 -3.8009,0.73044 -16.1202,3.08341 -32.225,6.24646 -48.3182,9.46682 -0.9421,0.18648 -2.1568,0.43449 -3.2037,0.64461 -2.9647,0.59924 -5.95,1.19656 -8.845,1.78813 -46.8756,9.51495 -93.6284,19.64063 -140.2092,30.50867 -0.5447,0.13094 -1.4281,0.33546 -2.1028,0.49461 -75.2226,17.60284 -150.0108,37.12812 -224.0124,59.32962 -0.5735,0.1762 -1.4682,0.4431 -2.165,0.6541 -12.0924,3.6353 -24.1583,7.3582 -36.2041,11.1447 -0.465,0.1441 -1.2718,0.4021 -1.8678,0.5898 -50.7667,16.0252 -101.1119,33.4168 -150.767,52.6212 -0.4525,0.1793 -1.2431,0.4834 -1.8252,0.7106 -7.328,2.8408 -14.6386,5.7265 -21.9346,8.6487 -0.3706,0.1533 -1.1135,0.4492 -1.6266,0.6571 -1.4311,0.5765 -2.8622,1.1531 -4.2933,1.7296 -0.4155,0.1649 -1.1743,0.4765 -1.7212,0.6976 -1.3989,0.5682 -2.7978,1.1365 -4.1968,1.7048 -0.327,0.1392 -1.1105,0.4566 -1.6124,0.664 -1.4273,0.586 -2.8547,1.1719 -4.2821,1.7579 -0.4142,0.168 -1.1711,0.4841 -1.7166,0.7089 -3.3608,1.3843 -6.7135,2.7885 -10.0666,4.1915 -0.3755,0.1621 -1.1062,0.4668 -1.6176,0.6835 -13.1793,5.5456 -26.2944,11.2437 -39.3414,17.0938 -0.3163,0.139 -1.0946,0.4934 -1.588,0.7149 -1.4068,0.6347 -2.8137,1.2695 -4.2206,1.9042 -0.3434,0.1606 -1.0926,0.498 -1.5914,0.7262 -36.3725,16.5365 -72.1847,34.3337 -107.1019,53.7641 -0.2929,0.1597 -1.0481,0.5856 -1.5183,0.8474 -45.8597,25.6218 -90.2423,54.0456 -131.6696,86.3935 -42.6249,33.3001 -82.1718,70.8823 -115.3488,113.7049 -24.0773,31.1122 -44.6735,65.0199 -60.1513,101.2221 -3.6926,8.6072 -7.081,17.3441 -10.187,26.1797 -0.017,0.04 -0.3747,1.0809 -0.5192,1.4951 -5.3233,15.3493 -9.7375,31.0131 -13.2269,46.8799 0.01,0 -0.2388,1.1145 -0.328,1.5371 -0.3652,1.6708 -0.7056,3.3469 -1.0529,5.0215 0,0.034 -0.2216,1.1214 -0.305,1.5504 -3.4388,16.8354 -5.2469,33.976 -5.8691,51.1392 -0.075,1.9493 -0.1436,4.398 -0.1794,6.0295 -0.017,0.8801 -0.034,1.7602 -0.051,2.6403 0,0.082 -0.014,1.1473 -0.02,1.5925 -0.1,8.3017 0.058,16.6057 0.4224,24.8997 0.017,0.2777 0.057,1.1987 0.083,1.7238 1.9592,39.7452 8.4776,79.1763 17.9863,117.7859 9.6571,38.8371 22.4191,76.9193 38.4025,113.6146 9.856,22.6005 20.9902,44.6599 33.6437,65.8269 0.1044,0.1626 0.6199,1.0252 0.8835,1.4588 11.434,18.8726 24.1172,37.0484 38.6585,53.6697 8.7449,9.9954 18.2372,19.3484 28.5164,27.7648 11.5598,9.5677 23.7419,18.3592 36.2189,26.6867 0.1488,0.1024 0.9981,0.6621 1.4184,0.9417 17.2472,11.4408 35.054,22.0244 53.2066,31.9607 0.159,0.09 1.0524,0.5719 1.496,0.8139 9.1484,4.9859 18.3953,9.7902 27.7208,14.4361 0.067,0.026 1.029,0.5057 1.4276,0.6999 17.1082,8.4399 34.4956,16.3304 52.2189,23.3938 1.2575,0.489 2.7328,1.0781 4.0798,1.5959 6.4004,2.4866 12.8441,4.8634 19.348,7.0662 0,0 1.0816,0.361 1.4916,0.4986 10.7931,3.5693 21.7384,6.7932 32.942,8.7944 4.4344,0.7851 8.9321,1.2078 13.4369,1.1785 12.9723,0.2745 25.8874,1.6662 38.7705,3.1224 28.4242,3.3261 56.7078,7.7668 84.8848,12.752 12.5054,2.221 24.9654,4.6854 37.4338,7.1026 13.5665,2.5812 27.1807,4.9201 40.849,6.8972 0.2967,0.037 1.1885,0.1683 1.7137,0.2416 0.6703,0.095 1.3406,0.1905 2.0109,0.2858 0.298,0.045 1.1891,0.1639 1.7148,0.2372 0.6706,0.092 1.3412,0.1843 2.0117,0.2765 0.2644,0.031 1.1896,0.1569 1.7083,0.2244 3.0551,0.4097 6.1146,0.7853 9.1745,1.1564 0.2662,0.034 1.1917,0.1405 1.7116,0.2023 0.6063,0.07 1.3029,0.1556 1.6608,0.1923 34.8872,4.028 70.0244,5.3305 105.1218,5.6738 0.2703,0 1.1514,0.01 1.6562,0.01 16.4426,0.1369 32.8862,0.051 49.3282,-0.1191 23.1304,-0.2582 46.4259,-0.8005 69.6191,-1.2187 38.3971,-0.7337 76.7943,-1.468 115.1914,-2.2012 25.4742,12.7544 50.9748,25.4568 76.4303,38.2482 18.9161,9.8272 37.4418,20.4529 55.1361,32.3533 8.6279,5.873 17.1714,11.9893 24.619,19.3389 3.2819,3.2745 6.1784,6.9491 8.4669,10.9834 2.2387,2.3527 5.0152,4.1194 7.7966,5.7603 3.8717,2.2528 8.0655,3.9498 12.4323,4.9553 9.3985,2.5922 18.068,7.2487 26.3286,12.3351 13.9823,8.724 26.897,19.0658 39.0708,30.1493 5.0519,4.6107 9.8806,9.4567 14.6757,14.3309 2.4285,2.3822 4.8929,4.7276 7.3757,7.0531 0.159,0.1414 0.8789,0.8152 1.2546,1.1623 12.8688,11.8711 26.2545,23.17 39.846,34.2018 8.4577,6.8336 17.0228,13.5345 25.7119,20.0714 1.0677,0.8019 2.3314,1.7486 3.4777,2.602 8.3769,6.2405 16.9497,12.2122 25.6349,18.0143 19.8657,13.4287 39.5295,27.1693 58.6438,41.6526 23.4284,17.6578 46.3864,35.9284 69.3126,54.2299 43.9612,35.1668 87.6619,70.6574 131.397,106.1042 33.904,27.4983 67.8051,55.0002 101.6744,82.5412 62.3869,50.9734 124.5191,102.2594 186.3054,153.9591 29.9202,25.0589 59.7925,50.1777 89.3263,75.6919 8.9439,7.7216 17.8249,15.5193 26.4636,23.5828 45.4785,41.9717 90.2787,84.6772 134.4641,128.0078 26.8006,26.3116 53.3821,52.8485 79.5485,79.7913 19.2431,19.8255 38.3172,39.8258 56.7179,60.439 8.4666,9.5308 16.8521,19.1613 24.4557,29.4035 4.0347,5.5099 7.8668,11.3305 9.9828,17.8767 1.6447,5.0732 2.0355,10.5143 1.2622,15.7847 -1.1223,8.6622 -4.515,16.8161 -8.162,24.6822 -5.571,11.8399 -12.2035,23.1417 -19.0173,34.2998 -14.479,23.4956 -30.2565,46.1678 -46.6488,68.3626 -15.6524,21.1179 -31.9503,41.7743 -49.2675,61.5562 -12.4248,14.173 -25.5107,27.8154 -39.8363,40.0875 -16.4797,14.2845 -33.6724,27.7184 -50.9681,40.9937 -30.3601,23.2222 -61.3087,45.6629 -92.4357,67.8426 -52.1439,37.0881 -104.9271,73.2711 -158.1264,108.8264 -53.0155,35.4026 -106.4532,70.1803 -160.5589,103.8967 -27.8075,17.3233 -55.8113,34.3388 -84.1953,50.7032 -15.9015,9.1699 -31.9749,18.0447 -48.2626,26.5101 -3.5579,1.8748 -7.2405,3.8314 -10.7114,5.6713 -18.8726,10.0196 -37.6703,20.183 -56.2891,30.668 -0.2659,0.1461 -1.0446,0.5913 -1.5074,0.8523 -22.5654,12.7264 -44.8129,26.0193 -66.6424,39.9715 -34.3862,21.9543 -67.805,45.3802 -100.9077,69.2134 -28.4301,20.5131 -56.6558,41.3077 -84.8058,62.203 -22.0882,16.4133 -44.268,32.9708 -66.3717,49.4659 -52.0867,38.6696 -104.1905,77.3182 -156.6826,115.4365 -15.8959,11.5324 -31.8478,22.9888 -47.9573,34.2214 -10.7998,7.9272 -20.9948,16.6345 -31.1863,25.3181 -22.9265,19.72 -45.3121,40.0579 -67.5689,60.5275 -37.269,34.369 -74.0962,69.3175 -110.5913,104.5505 -36.9383,35.6992 -73.5995,71.6865 -109.8762,108.0582 -0.3126,0.3197 -0.8928,0.8994 -1.3079,1.3186 -29.5238,29.6936 -58.9676,59.4672 -88.2507,89.3982 -39.8464,40.7487 -79.5162,81.8906 -118.5697,123.4831 -0.9091,0.9656 -1.6863,1.7907 -2.6078,2.7772 -46.3245,49.3687 -91.824,99.5128 -136.3885,150.4766 -17.6875,20.2115 -35.2319,40.5482 -52.6645,60.9799 -17.8236,20.9032 -35.6569,42.0494 -53.3197,63.1846 -0.8016,0.9579 -1.5748,1.879 -2.3208,2.7784 -11.7619,14.1325 -23.5626,28.2339 -35.2191,42.4533 -7.528,9.7021 -14.326,19.9414 -21.0966,30.1783 -9.8771,15.0264 -19.426,30.2656 -28.8407,45.5851 -0.1828,0.2927 -0.6264,1.0244 -0.9091,1.4853 -19.227,31.4068 -37.8881,63.1592 -56.0584,95.1886 -9.4733,16.7446 -18.7825,33.581 -28.3523,50.2711 -19.4743,34.0804 -39.4173,67.8945 -59.8964,101.381 -13.0654,21.3303 -26.3273,42.5486 -40.265,63.3225 -5.4529,8.1162 -11.1917,16.0334 -16.8831,23.9824 -14.7419,20.7501 -29.1546,41.736 -43.1553,62.9937 -6.3882,9.728 -12.6669,19.5299 -18.675,29.498 -3.8637,6.2559 -7.903,12.4084 -12.1979,18.3774 -5.1134,6.9045 -10.7005,13.7055 -17.9808,18.4274 -6.5948,4.3568 -14.568,6.7367 -22.4906,6.2011 -7.1901,-0.4358 -14.1892,-3.1842 -19.8099,-7.6792 -11.0014,18.8549 -21.3194,38.0977 -31.5628,57.3717 -16.1923,30.5516 -31.9957,61.3074 -47.7028,92.1107 -12.4767,24.4978 -24.9509,49.1757 -37.3381,73.7876 -10.7613,21.1415 -19.9994,43.0146 -28.8376,65.0164 -3.5423,8.8553 -6.9803,17.7519 -10.3751,26.6647 -0.1161,0.2992 -0.4242,1.1231 -0.614,1.6236 -0.6983,1.8507 -1.3966,3.7015 -2.095,5.5522 -0.1194,0.3315 -0.4192,1.1252 -0.6077,1.6337 -7.8789,21.0485 -15.3916,42.2326 -22.6716,63.4952 -0.2016,0.6035 -0.5156,1.515 -0.7604,2.2366 -16.64,48.7635 -32.0297,97.9494 -46.4349,147.4177 -0.1041,0.3478 -0.3336,1.1535 -0.4857,1.6766 -8.362,28.8342 -16.3583,57.7746 -23.942,86.8234 -0.088,0.3268 -0.3012,1.1623 -0.4372,1.684 -4.2767,16.3567 -8.2628,32.7253 -12.6151,49.066 -7.4055,27.9073 -15.2891,55.6913 -23.8584,83.2646 -3.8423,12.2213 -7.7903,24.4153 -12.2083,36.4424 -2.2052,5.9605 -4.6281,11.8397 -6.6693,17.8607 -2.0167,5.7222 -3.9306,11.4801 -5.7918,17.2546 -0.067,0.2245 -0.3634,1.1429 -0.5189,1.635 -8.4945,26.7144 -16.2235,53.6733 -23.1638,80.833 -3.5444,13.8112 -6.6132,27.7416 -10.3632,41.5006 -8.3981,31.476 -17.9121,62.6475 -28.161,93.5681 -6.3552,19.0936 -13.0716,38.0735 -20.5403,56.7625 -1.9343,4.9374 -4.0041,10.3133 -5.7364,15.0212 -1.6805,4.5759 -3.3258,9.1646 -4.9422,13.7636 -0.084,0.2299 -0.3941,1.1329 -0.5653,1.6222 -7.814,22.4161 -14.8256,45.1044 -21.4054,67.911 -0.1111,0.3736 -0.3313,1.1541 -0.4842,1.6834 -9.8899,34.4942 -18.7606,69.2729 -27.1076,104.1701 -0.084,0.3382 -0.2771,1.1683 -0.4029,1.6949 -14.8021,62.2478 -27.905,124.8872 -40.25,187.6644 -7.1517,36.4194 -14.0043,72.8971 -20.6832,109.4059 -7.5129,40.6804 -15.7123,81.2366 -24.7582,121.6046 -6.8205,30.2762 -14.053,60.4681 -22.2548,90.4026 -4.2552,15.3633 -8.7103,30.6819 -13.9127,45.7547 -2.2927,6.6977 -4.8976,13.2806 -7.4638,19.8764 -5.7776,14.986 -11.2895,30.0729 -16.7021,45.1941 -0.1209,0.3287 -0.4021,1.1314 -0.5844,1.6417 -12.4716,35.0408 -24.4013,70.272 -36.0777,105.5849 -0.4503,1.3771 -0.9797,2.9763 -1.4604,4.4388 -10.2167,31.0015 -20.1922,62.0826 -29.9745,93.2242 -1.7593,5.5998 -3.5413,11.3276 -5.2643,16.8546 -12.7453,41.1393 -25.2111,82.3712 -36.731,123.8725 -5.5431,20.1962 -11.0143,40.4298 -15.319,60.933 -8.554,40.7153 -15.4177,81.7919 -20.3051,123.1107 -3.0838,25.9989 -5.4098,52.0877 -6.9692,78.2224 -0.013,0.302 -0.068,1.1985 -0.097,1.7288 -0.072,1.2444 -0.1589,2.8047 -0.2211,3.8535 -0.6212,11.3753 -1.1166,22.6974 -1.447,34.07 -0.029,0.9206 -0.058,1.8412 -0.087,2.7618 0,0.204 -0.03,1.1981 -0.041,1.7076 -0.1388,5.0233 -0.2357,10.0474 -0.3258,15.0717 -0.01,0.2124 -0.016,1.1986 -0.023,1.71 -0.5579,38.1317 0.469,76.3024 2.8765,114.3466 0.028,0.3779 0.078,1.1982 0.1145,1.7455 0.4064,6.3603 0.8759,12.9556 1.3542,19.1608 0.1381,1.7624 0.2761,3.5247 0.4141,5.2871 0.026,0.3598 0.098,1.1967 0.1413,1.7393 0.1126,1.3574 0.2277,2.8086 0.3351,4.05 0.1322,1.5618 0.2644,3.1235 0.3967,4.6853 0.03,0.3848 0.1049,1.1961 0.1521,1.7442 1.2684,14.7047 2.8044,29.3843 4.3788,44.0587 3.6344,34.7846 6.9287,69.6123 9.1956,104.5155 0.8576,13.8335 1.6435,27.6856 1.5739,41.5507 -0.064,6.9991 -0.2938,14.1194 -2.3336,20.8672 -3.0413,9.6767 -10.3701,17.8686 -19.5802,22.0861 -8.354,3.9395 -18.0844,4.4241 -26.9649,2.1154 -2.2977,-0.5837 -4.5536,-1.3353 -6.744,-2.2425 5.9477,29.2097 13.1487,58.1568 21.2617,86.8379 0.085,0.2812 0.3308,1.1538 0.4776,1.6622 0.4378,1.5299 0.8756,3.0598 1.3134,4.5898 0.078,0.2786 0.3353,1.1524 0.4821,1.6597 4.6995,16.2522 9.7663,32.3958 15.0592,48.4639 9.3322,28.479 18.0975,57.1511 25.8625,86.0992 8.9526,33.3561 16.5055,67.104 22.0621,101.1972 5.7819,35.3254 9.442,70.9808 11.4303,106.7156 1.5105,26.9153 2.1908,53.8733 2.2984,80.8292 -0.065,19.3044 -0.1774,38.6282 -1.5264,57.8936 -0.8317,11.1249 -2.0048,22.3227 -5.2118,33.0492 -2.5313,8.4095 -6.737,16.4948 -13.1667,22.584 -2.8369,2.7086 -6.0817,4.9842 -9.5787,6.7584 -3.3788,4.8579 -5.8601,10.2712 -8.1551,15.7058 -5.5155,13.4944 -9.587,27.5376 -12.9245,41.7149 -4.3123,18.6733 -7.3746,37.6573 -8.7395,56.7801 -0.5749,7.7587 -0.7183,15.54 -0.7156,23.3175 -0.1652,17.2478 -0.9955,34.614 -4.7457,51.5021 -2.9577,13.2302 -7.9814,26.0264 -15.1334,37.559 -2.982,4.9028 -6.3916,9.5246 -9.8282,14.1132 -4.6288,6.5471 -8.7952,13.6144 -10.7154,21.4709 -2.359,9.2268 -2.7505,18.8048 -2.9654,28.2822 -0.084,4.2819 -0.052,8.5652 0.01,12.8472 0.01,0.089 0.023,1.1478 0.033,1.5942 0.113,6.379 0.3892,12.754 0.4545,19.1338 0.4426,16.8516 2.4694,33.632 5.3932,50.2232 0.042,0.2517 0.2135,1.1806 0.3055,1.693 0.5,2.7413 1.0336,5.4764 1.5968,8.2054 0.01,0.048 0.2368,1.1197 0.3269,1.5499 1.8087,8.372 3.8683,16.7093 6.6465,24.8176 1.8093,5.0964 4.1251,9.9908 6.1838,14.9876 4.1584,9.8194 8.3761,19.6159 12.4754,29.4587 9.995,31.4149 19.9936,62.8286 29.9905,94.2429 -26.0941,-20.4834 -52.2113,-40.939 -78.2873,-61.444 -15.9256,-15.0987 -31.8262,-30.2241 -47.7603,-45.3137 -1.0009,-0.9205 -2.0279,-1.9015 -3.0189,-2.7775 0.062,9.8831 0.2392,19.7725 -0.2511,29.6485 -0.9128,20.7137 -3.6882,41.4661 -9.853,61.3095 -5.184,16.6323 -12.973,32.6694 -24.3566,45.9645 -9.3966,10.9877 -21.3324,19.8823 -34.7932,25.2396 -5.8576,2.3697 -11.994,3.9647 -18.1848,5.1822 -2.1153,0.4586 -4.6067,1.02 -6.4791,1.4298 -5.9495,1.3696 -11.9395,2.6923 -17.6779,4.808 -0.6564,1.7938 -0.99,3.7694 -1.4251,5.6562 -1.3028,6.5499 -2.4864,13.1457 -4.5553,19.5098 -3.1802,10.0741 -8.1344,19.6691 -15.1055,27.6511 -7.647,8.853 -17.4231,15.609 -27.765,20.947 -7.5238,3.95 -15.4512,7.037 -23.2155,10.465 -11.8968,5.331 -23.608,11.295 -34.123,19.059 -4.5319,3.421 -8.9785,7.168 -12.1125,11.961 -0.5848,0.983 -1.2132,2.056 -1.056,3.247 -0.2026,11.91 -5.1932,23.528 -13.2317,32.252 -7.9379,8.736 -18.5108,14.747 -29.6697,18.355 -0.6066,0.208 -1.2208,0.393 -1.8344,0.578 2.2123,10.638 3.0491,21.582 2.1811,32.423 -1.1013,14.739 -5.4216,29.156 -12.1142,42.308 -9.2809,18.312 -22.761,34.148 -37.5762,48.217 -15.1458,14.323 -31.8007,26.954 -48.9346,38.789 -20.5431,14.118 -41.8779,27.048 -63.5078,39.423 -15.0112,8.588 -30.2179,16.827 -45.4288,25.054 -22.3718,12.145 -44.7437,24.29 -67.1156,36.435 -182.06464,1.723 -364.12915,3.46 -546.19391,5.17 -46.22056,0.385 -92.44055,0.839 -138.65961,1.375 -50.91441,0.601 -101.93006,1.315 -152.87838,2.279 -21.14371,0.403 -42.49492,0.854 -63.71962,1.379 -37.76119,0.97 -75.65688,2.05 -113.431231,4.064 -0.654592,0.04 -1.520444,0.08 -1.996593,0.112 -2.381951,0.141 -4.797933,0.274 -7.157765,0.435 14.2211,9.579 29.179988,18.008 44.315759,26.043 7.30008,3.858 14.66411,7.595 22.0651,11.256 0.31555,0.15 1.07769,0.529 1.56433,0.767 2.15828,1.067 4.32424,2.118 6.4884,3.172 0.3464,0.173 1.08098,0.523 1.57597,0.764 39.32522,18.919 79.53297,35.941 120.0385,52.156 52.4352,20.933 105.45871,40.368 158.79495,58.876 23.5248,8.147 47.11546,16.104 70.76051,23.896 0.38219,0.121 1.14123,0.373 1.66766,0.544 9.14745,3.006 18.304,5.983 27.46515,8.946 0.36807,0.121 1.14326,0.367 1.66718,0.536 18.88838,6.079 37.81232,12.047 56.76641,17.917 0.38724,0.123 1.14748,0.354 1.67749,0.518 32.57492,10.057 65.2433,19.811 98.0022,29.252 0.64747,0.181 1.60256,0.458 2.36808,0.677 58.08429,16.698 116.45525,32.406 175.11239,46.967 8.06048,2.003 16.31184,4.015 24.4544,5.987 1.78325,0.43 3.57307,0.866 5.27548,1.275 35.26933,8.484 70.64643,16.524 106.13926,24.019 0.51458,0.105 1.37071,0.287 2.0162,0.422 5.8653,1.237 11.73582,2.449 17.60689,3.659 0.3929,0.08 1.1767,0.238 1.7193,0.349 20.4312,4.144 40.8769,8.237 61.4327,11.722 8.2837,1.439 16.5762,2.826 24.8714,4.196 0.5535,0.09 1.448,0.236 2.1322,0.347 17.0083,2.787 34.0336,5.47 51.0592,8.149 1.9629,0.31 4.1266,0.643 6.1669,0.96 18.4072,2.865 36.8243,5.665 55.2433,8.454 10.4194,1.565 20.9926,3.156 31.4732,4.717 8.3535,1.25 16.8161,2.493 25.2332,3.741 73.491,10.841 147.187,21.344 220.8349,31.508 63.5762,8.74 127.177,17.317 190.8702,25.166 22.6465,2.748 45.2991,5.475 68.0103,7.637 2.8069,0.251 5.6149,0.488 8.4239,0.714 0.3767,0.02 1.1971,0.09 1.7437,0.134 13.1181,0.993 26.2282,2.111 39.3221,3.394 16.1922,1.581 32.3717,3.347 48.4775,5.659 6.7002,0.956 13.3514,2.232 19.935,3.801 7.5319,1.66 15.1725,3.881 21.48,8.487 6.3658,4.606 11.1482,11.433 12.9994,19.096 2.1429,8.475 0.6276,17.656 -3.5573,25.273 -3.737,7.024 -9.1596,12.92 -14.2188,18.992 -4.7628,5.655 -10.3255,10.57 -16.075,15.193 -9.6839,7.706 -20.0564,14.495 -30.5725,20.999 -18.5412,11.41 -37.7252,21.733 -57.053,31.738 -31.1188,16.02 -62.7753,30.972 -94.6275,45.472 -49.9853,22.724 -100.5183,44.224 -151.3083,65.081 -75.6706,31.041 -151.9556,60.572 -228.6616,88.954 -80.2685,29.671 -161.0148,58.062 -242.3058,84.809 -58.52552,19.238 -117.33984,37.624 -176.59183,54.503 -41.08161,11.675 -82.38066,22.638 -124.05122,32.021 -26.52442,5.94 -53.23306,11.025 -80.01754,15.641 -50.17884,8.632 -100.61055,15.726 -151.12842,22.048 -58.18451,7.238 -116.51156,13.335 -174.93392,18.297 -46.30348,3.907 -92.67548,7.1 -139.10982,8.946 -27.03473,1.039 -54.10145,1.631 -81.15339,0.966 -11.68946,-0.308 -23.37099,-0.967 -35.010365,-2.1 -4.533779,-0.378 -9.070939,-0.723 -13.614639,-0.957 4.06752,5.011 8.214246,9.963 12.539298,14.754 8.202526,8.931 17.664976,16.598 27.405986,23.777 6.6197,4.844 13.89585,9.67 20.55942,13.866 26.22947,16.408 53.969,30.261 82.17815,42.908 30.98096,13.817 62.65339,26.05 94.70582,37.142 0.34755,0.124 1.13545,0.391 1.65162,0.569 45.11062,15.52 90.99309,28.769 137.36205,39.97 0.36181,0.08 1.1679,0.279 1.69983,0.405 30.74967,7.359 61.72081,13.811 92.88432,19.159 3.22753,0.549 6.45521,1.097 9.68929,1.606 0.47965,0.07 1.31753,0.208 1.93444,0.305 33.28799,5.165 66.74085,8.923 100.24967,12.203 50.76509,4.913 101.6423,8.589 152.54831,11.682 25.2851,1.52 50.76469,2.907 76.13693,4.143 6.23581,0.303 12.66489,0.612 18.97858,0.902 4.28004,0.201 8.42347,0.389 12.71989,0.579 31.72302,1.42 63.45518,2.63 95.19194,3.698 10.5067,0.344 21.2,0.699 31.7795,1.011 1.7485,0.05 3.4322,0.106 5.118,0.152 10.7753,0.315 21.5511,0.61 32.3271,0.897 1.9976,0.05 4.1987,0.107 6.2745,0.159 19.2176,0.496 38.4374,0.904 57.6572,1.306 0.4881,0 1.3336,0.02 1.9586,0.03 30.8639,0.593 61.7303,1.045 92.598,1.383 0.3535,0 1.2007,0 1.7433,0.01 48.452,0.47 96.9074,0.634 145.3613,0.382 16.6783,-0.08 33.3564,-0.22 50.0341,-0.397 1.6896,-0.02 3.5998,-0.04 5.3742,-0.06 19.2754,-0.218 38.5498,-0.522 57.823,-0.885 1.6562,-0.03 3.5327,-0.07 5.2736,-0.103 12.995,-0.255 25.989,-0.554 38.9823,-0.883 1.2057,-0.03 2.6658,-0.07 3.9693,-0.106 3.9269,-0.105 7.8538,-0.211 11.7807,-0.316 0.5633,-0.02 1.4664,-0.04 2.16,-0.06 8.7427,-0.252 17.4849,-0.518 26.2267,-0.8 0.6718,-0.03 1.666,-0.06 2.4614,-0.09 3.9613,-0.136 7.9848,-0.27 11.8703,-0.407 6.801,-0.236 13.6006,-0.508 20.4007,-0.765 0.6716,-0.03 1.6656,-0.07 2.4608,-0.102 24.8244,-0.989 49.5717,-2.17 74.4386,-3.612 0.7783,-0.04 1.9202,-0.114 2.841,-0.168 32.04,-1.903 63.8429,-4.191 95.7753,-7.366 0.3796,-0.03 1.1516,-0.116 1.6816,-0.168 16.2512,-1.679 32.4786,-3.582 48.74,-5.162 35.691,-3.59 71.4388,-6.686 107.2534,-8.741 17.585,-0.968 35.1968,-1.789 52.8131,-1.482 9.3036,0.156 18.687,0.86 27.6651,3.452 9.5817,2.69 18.7087,6.757 27.639,11.102 14.7793,7.26 28.9701,15.666 42.791,24.602 11.8152,7.642 23.3166,15.772 34.3848,24.463 9.9986,7.678 19.9059,15.506 30.4265,22.468 7.2885,4.785 15.019,8.986 23.3046,11.771 12.1384,4.153 24.8683,6.149 37.5308,7.938 12.2928,1.669 24.6354,2.936 36.981,4.14 0.368,0.04 1.1953,0.114 1.7391,0.166 11.4172,1.091 22.8405,2.118 34.2648,3.13 16.7461,1.45 33.6316,3.08 50.468,4.13 6.2087,0.402 12.4207,0.752 18.6336,1.083 0.3193,0.02 1.199,0.06 1.7333,0.09 1.5441,0.08 3.3463,0.17 4.7279,0.235 6.4101,0.308 12.8216,0.585 19.2341,0.838 0.7801,0.03 1.8655,0.07 2.7628,0.105 26.9427,1.007 53.9009,1.556 80.8602,1.861 0.3451,0 1.2007,0.01 1.7414,0.01 35.4545,0.357 70.9126,0.259 106.366,-0.171 1.6805,-0.02 3.5795,-0.04 5.3452,-0.07 21.1362,-0.288 42.2013,-0.682 63.3156,-1.202 6.323,-0.157 12.735,-0.334 19.1184,-0.502 1.0281,-0.03 2.3912,-0.07 3.5588,-0.105 14.9355,-0.425 29.8688,-0.923 44.8007,-1.457 0.5631,-0.03 1.466,-0.06 2.1594,-0.08 14.7348,-0.554 29.5861,-1.15 44.3615,-1.832 1.5069,-0.07 2.8457,-0.132 4.379,-0.203 14.7068,-0.68 29.4101,-1.435 44.1099,-2.253 0.4869,-0.02 1.3316,-0.08 1.9557,-0.111 42.466,-2.425 84.9111,-5.377 127.2386,-9.61 40.8108,-4.171 81.5053,-9.478 122.0205,-15.916 0.6281,-0.1 1.5803,-0.252 2.3327,-0.371 1.323,-0.214 2.8119,-0.448 3.9937,-0.642 3.8633,-0.628 7.7251,-1.264 11.5857,-1.907 0.553,-0.09 1.4468,-0.243 2.1304,-0.357 27.5282,-4.648 54.9706,-9.806 82.2993,-15.512 0.3922,-0.09 1.1749,-0.248 1.7165,-0.363 1.5145,-0.318 3.1748,-0.667 4.5655,-0.96 104.7264,-22.194 207.8199,-52.292 307.736,-90.766 80.0004,-30.802 157.9507,-66.997 232.8199,-108.77 0.3126,-0.18 1.0472,-0.588 1.5214,-0.855 1.2865,-0.721 2.573,-1.442 3.8595,-2.163 0.3251,-0.179 1.0456,-0.59 1.5222,-0.858 1.2842,-0.726 2.5685,-1.451 3.8528,-2.177 0.3109,-0.183 1.0429,-0.595 1.515,-0.866 56.8841,-32.333 111.8882,-67.985 164.5211,-106.861 19.4826,-14.306 38.9148,-28.696 57.7947,-43.795 2.8003,-2.232 5.9627,-4.817 8.4904,-6.885 0.8324,-0.688 1.6648,-1.376 2.4971,-2.064 0.2378,-0.192 0.9224,-0.768 1.3317,-1.107 0.4236,-0.355 1.0307,-0.856 1.2744,-1.066 15.8268,-13.232 30.9774,-27.279 45.2375,-42.189 19.3366,-20.205 37.2661,-41.7 54.7839,-63.484 24.3929,-30.414 48.2898,-61.227 71.5977,-92.481 34.0345,-45.695 66.7029,-92.473 96.2141,-141.236 10.8177,-17.85 21.2023,-35.962 31.1174,-54.329 0.6931,-1.281 1.477,-2.745 2.2051,-4.096 0.1322,-0.257 0.5631,-1.06 0.8101,-1.527 10.681,-20.014 20.7971,-40.326 30.4242,-60.867 0.1362,-0.3 0.4851,-1.045 0.7051,-1.514 10.3952,-22.26 20.1644,-44.807 29.5411,-67.513 6.9523,-16.825 14.2127,-33.523 21.4954,-50.208 16.257,-37.063 32.9593,-73.93 49.9487,-110.662 7.6256,-16.443 15.2879,-32.869 23.15,-49.2 11.7865,-24.211 22.9051,-48.741 33.7301,-73.396 1.2534,-2.851 2.4932,-5.709 3.7382,-8.564 0.1501,-0.34 0.4762,-1.102 0.6937,-1.604 4.9221,-11.356 9.7647,-22.746 14.5602,-34.156 0.1642,-0.384 0.5198,-1.235 0.6888,-1.645 11.5631,-27.724 22.7917,-55.594 33.2473,-83.757 3.0032,-8.035 5.8151,-16.139 8.7662,-24.192 10.3028,-27.745 21.6432,-55.091 33.2598,-82.307 16.7772,-39.177 34.3389,-78.021 52.7103,-116.477 10.0385,-21.012 20.3996,-41.87 31.1529,-62.525 15.4905,-30.206 30.4905,-60.697 43.6589,-91.997 0.421,-1.01 1.0426,-2.485 1.3351,-3.196 0.6012,-1.465 1.2025,-2.929 1.8038,-4.394 0.04,-0.09 0.429,-1.066 0.5972,-1.482 8.6029,-21.3465 16.1933,-43.1806 21.1698,-65.68 2.1058,-9.4942 3.4869,-19.1262 5.3299,-28.6712 4.6623,-24.8463 10.0723,-49.5479 15.8882,-74.1481 3.5224,-14.8022 7.2029,-29.5709 11.3052,-44.2238 7.0304,-23.2389 13.145,-46.7473 18.7496,-70.3672 2.3501,-10.1297 4.7221,-20.2616 6.5789,-30.4958 2.1479,-13.0285 5.591,-25.971 11.639,-37.7676 7.2578,-14.3888 18.0046,-26.7099 29.8343,-37.5262 13.8469,-12.671 29.0571,-23.7323 44.411,-34.4852 21.4684,-14.9317 43.4769,-29.0652 65.5176,-43.1317 22.4707,-14.3185 45.0896,-28.4024 67.6279,-42.6142 17.077,-10.8395 34.0053,-21.9122 50.826,-33.1451 0.5911,-0.3915 1.4406,-0.9642 2.1309,-1.4253 41.4578,-27.7698 82.3416,-56.389 122.8857,-85.4737 11.2402,-8.066 22.4495,-16.1751 33.6357,-24.3158 1.1168,-0.8103 2.424,-1.7677 3.6139,-2.6346 8.2947,-6.0445 16.5698,-12.1158 24.8373,-18.1974 1.3576,-1.0062 2.8971,-2.1371 4.3246,-3.1912 51.9495,-38.3131 103.3693,-77.3448 154.2359,-117.0844 48.4647,-37.9132 96.452,-76.447 143.5482,-116.0508 15.7117,-13.2353 31.3212,-26.5927 46.778,-40.1248 0.338,-0.2925 0.9525,-0.8359 1.3964,-1.2244 11.7436,-10.3449 23.3727,-20.8198 35.225,-31.0409 28.4076,-24.6457 57.2964,-48.7315 86.3783,-72.5763 36.2204,-29.6613 72.7779,-58.9167 109.8884,-87.4578 13.885,-10.6158 27.8686,-21.1024 41.6782,-31.8168 36.9437,-28.5366 73.3405,-57.7789 109.2743,-87.5762 45.2542,-37.5654 89.7884,-76.0042 133.38,-115.4887 3.17,-2.8679 6.3291,-5.7478 9.4884,-8.6275 0.6587,-0.598 1.5252,-1.3948 2.2637,-2.0692 30.4638,-27.8762 60.4632,-56.273 89.5406,-85.5969 17.5562,-17.775 34.8343,-35.8446 51.2202,-54.7109 4.464,-5.1426 8.8614,-10.3426 13.2509,-15.5488 0.2557,-0.3001 0.7716,-0.92 1.1269,-1.3425 21.071,-25.1156 41.5187,-50.7461 61.7977,-76.503 12.3986,-15.7693 24.7099,-31.607 36.9543,-47.4963 32.2698,-41.9238 64.2487,-84.3014 95.8674,-126.8059 51.7399,-69.5795 102.8608,-139.8117 153.1244,-210.5398 21.5467,-30.3336 42.954,-60.7664 64.1254,-91.3633 0.9957,-1.4493 2.1207,-3.0725 3.1662,-4.5887 1.6626,-2.4105 3.2959,-4.7678 4.9287,-7.1427 28.7617,-41.8065 57.2121,-83.8411 84.3872,-126.7012 15.6419,-24.6948 31.167,-49.4636 46.596,-74.292 0.9659,-1.5512 2.0385,-3.2857 3.0454,-4.9074 46.5017,-74.9559 92.4182,-150.2732 138.0991,-225.7316 73.5987,-121.6569 146.63,-243.8558 218.9491,-366.363 15.3934,-26.0668 30.7289,-52.1678 46.0456,-78.2798 32.7488,-55.3849 68.1981,-109.3895 109.4247,-158.8859 22.9786,-27.66 47.7019,-53.8587 73.8386,-78.5521 25.8885,-24.4719 53.0451,-47.5767 80.9212,-69.7482 35.6448,-28.2483 71.4552,-56.3341 108.6323,-82.5543 23.6713,-16.6831 47.9093,-32.555 72.589,-47.7046 32.8292,-20.2153 66.2585,-39.4314 99.7273,-58.562 22.5157,-12.867 45.1612,-25.5061 67.6254,-38.4637 13.3252,-7.6706 26.6055,-15.4191 39.8386,-23.2474 27.1271,-16.0975 54.1755,-32.7087 80.6172,-50.0457 0.8157,-0.5342 1.6315,-1.0685 2.4473,-1.6027 0.2314,-0.1586 1.0004,-0.663 1.4384,-0.9546 31.1508,-20.5526 61.5399,-42.2742 90.8682,-65.3565 41.8747,-32.923 81.5727,-68.5257 120.0163,-105.3716 0.5877,-0.5615 1.1753,-1.123 1.763,-1.6845 0.2562,-0.2521 0.8647,-0.8331 1.2559,-1.2112 24.3058,-23.3481 48.1527,-47.1692 71.7715,-71.2107 0.8659,-0.8888 1.9132,-1.9522 2.8488,-2.9081 42.3746,-43.2272 84.0399,-87.1416 125.6139,-131.1368 35.6153,-37.4908 71.8412,-74.4045 108.7905,-110.5824 18.6083,-18.182 37.3628,-36.2258 56.7254,-53.6068 7.1662,-6.435 14.5093,-12.6785 22.1643,-18.527 12.2057,-9.6749 24.0027,-19.8503 35.812,-30.0012 32.15,-27.8062 63.8027,-56.1807 95.3478,-84.6693 35.7644,-32.341 71.2917,-64.9447 106.5818,-97.8026 21.3945,-19.937 42.6992,-39.9714 63.7873,-60.2326 0.2557,-0.2526 0.8636,-0.8343 1.2541,-1.2129 5.6694,-5.4555 11.3156,-10.9349 16.9393,-16.4375 0.2638,-0.2532 0.8568,-0.8412 1.2467,-1.2226 8.7827,-8.6301 17.5171,-17.3181 25.8936,-26.3451 3.9385,-4.3806 7.5117,-9.0711 11.0394,-13.7838 0.1744,-0.2419 0.7156,-0.9638 1.0308,-1.39 11.658,-15.808 22.5661,-32.1556 33.1633,-48.6889 2.2527,-3.531 4.4855,-7.0746 6.7024,-10.6282 0.169,-0.2656 0.6328,-1.0201 0.9149,-1.4734 0.458,-0.7413 1.0827,-1.7425 1.4323,-2.3149 6.5242,-10.5549 12.8139,-21.2525 18.9763,-32.022 23.5666,-40.5298 49.071,-79.9816 77.379,-117.3746 26.0286,-34.4647 54.3761,-67.1481 84.3553,-98.2266 29.3405,-30.4569 60.1784,-59.4334 91.6641,-87.654 61.2126,-55.2792 121.4707,-111.6202 180.5254,-169.2006 0.4996,-0.4875 0.9461,-0.918 1.3717,-1.3336 28.5661,-27.8821 56.8496,-56.0537 84.8243,-84.5292 0.365,-0.3786 0.9796,-1.0008 1.4402,-1.4728 28.2594,-28.8033 56.1868,-57.9324 83.761,-87.3924 0.2671,-0.292 0.8185,-0.8785 1.1944,-1.2832 3.0387,-3.2585 6.0774,-6.5169 9.1162,-9.7754 0.4856,-0.5184 1.1796,-1.2703 1.7452,-1.8784 3.2411,-3.5028 6.5769,-7.1044 9.8583,-10.6489 0.3063,-0.3247 0.8588,-0.9319 1.2595,-1.3647 25.7625,-27.9331 51.2459,-56.2413 76.3308,-84.8455 0.8149,-0.9256 1.5554,-1.7702 2.3995,-2.7373 55.891,-63.8467 109.9142,-129.3402 161.6,-196.6404 0.2685,-0.3565 0.77,-1.0065 1.1278,-1.4754 21.2243,-27.6718 42.0508,-55.649 62.4445,-83.9387 0.2652,-0.363 0.7399,-1.0287 1.0854,-1.5077 12.8333,-17.8224 25.4886,-35.7728 37.9693,-53.8438 0.2352,-0.3347 0.6811,-0.9888 0.997,-1.4457 19.1403,-27.7535 37.8392,-55.8108 56.095,-84.154 0.469,-0.7353 1.102,-1.7127 1.63,-2.5422 15.569,-24.2815 30.862,-48.7424 45.695,-73.4814 2.166,-3.6829 4.333,-7.3657 6.499,-11.0486 0.248,-0.416 0.674,-1.1513 0.99,-1.6896 2.373,-4.0649 4.755,-8.1247 7.121,-12.1932 0.461,-0.8032 1.068,-1.8473 1.584,-2.743 14.208,-24.5635 28.262,-49.2232 41.621,-74.2609 0.459,-0.8659 0.918,-1.7318 1.377,-2.5977 -7.945,1.6672 -15.807,3.7028 -23.629,5.8731 -0.304,0.082 -1.155,0.3266 -1.669,0.4711 -18.189,5.1346 -36.114,11.1448 -54.014,17.1959 -19.135,6.3439 -38.376,12.4578 -57.9944,17.1421 -10.959,2.5862 -22.0942,4.7511 -33.3771,5.1081 -8.8961,0.2677 -18.0295,-0.9609 -26.0605,-4.9784 -8.5085,-4.1973 -15.4247,-11.6352 -18.7005,-20.569 -2.3387,-6.3341 -3.1028,-13.3078 -1.8726,-19.9646 1.1929,-6.2719 3.7594,-12.1602 6.1666,-18.0378 6.6114,-15.6367 13.9208,-30.9651 21.1919,-46.3022 12.1195,-25.3811 24.5467,-50.6149 37.1516,-75.7577 14.3335,-27.8471 28.3383,-55.8986 40.532,-84.7607 0.1,-0.2476 0.462,-1.1073 0.663,-1.5904 7.293,-17.4976 13.908,-35.346 18.4,-53.7875 3.456,-14.406 5.557,-29.3383 4.068,-44.1559 -1.119,-11.2195 -4.507,-22.1627 -9.635,-32.1901 -6.69,-13.1984 -15.79,-24.9989 -25.4803,-36.1152 -7.8153,-8.9121 -16.0835,-17.4219 -24.6215,-25.641 -12.2043,-11.3745 -23.6164,-23.6497 -33.5963,-37.0328 -4.9913,-6.7683 -9.6982,-13.8704 -12.7583,-21.7448 -2.6992,-7.0233 -3.6049,-14.9183 -1.508,-22.2224 1.853,-6.8199 6.0532,-12.706 10.7656,-17.859 7.4548,-8.1467 15.7455,-15.469 24.0247,-22.7572 20.302,-17.6592 41.3535,-34.4335 62.5681,-50.9768 17.314,-13.4552 34.837,-26.6381 52.459,-39.6869 15.59,-11.9424 31.017,-24.0972 46.311,-36.4158 0.381,-0.3025 1.038,-0.8377 1.525,-1.2294 1.398,-1.1305 2.961,-2.3901 4.256,-3.4405 20.125,-16.3044 40.043,-32.8638 59.776,-49.6406 0.275,-0.2306 0.913,-0.7795 1.327,-1.132 30.234,-25.7793 60.064,-52.0424 89.101,-79.166 12.949,-12.1089 25.694,-24.4371 38.132,-37.0707 16.426,-16.6027 32.999,-33.0654 49.933,-49.1514 18.454,-17.454 37.309,-34.5405 57.416,-50.0854 18.031,-13.9144 37.265,-26.4064 57.957,-36.0029 5.885,-2.7529 11.905,-5.2244 17.647,-8.2775 18.333,-9.4692 34.963,-21.8604 50.805,-34.9972 1.532,-1.2604 3.433,-2.8705 4.705,-3.9415 14.776,-12.5034 28.966,-25.6773 43.01,-38.9918 0.2,-0.1989 0.868,-0.8291 1.248,-1.1937 26.33,-25.0859 51.956,-50.8955 77.604,-76.6741 35.075,-35.0452 71.393,-68.8266 108.32,-101.9064 53.699,-48.0474 108.748,-94.5771 164.787,-139.8704 54.792,-44.2562 110.547,-87.3323 167.503,-128.7711 30.901,-22.4734 62.192,-44.4135 94.002,-65.5827 23.057,-15.53 45.617,-31.7853 67.957,-48.3252 19.155,-14.2009 38.132,-28.6478 56.731,-43.5709 7.258,-5.9217 14.552,-11.8031 22.07,-17.3941 19.376,-14.6287 39.178,-28.6816 58.993,-42.7071 43.718,-30.829 87.854,-61.0615 132.095,-91.1336 65.184,-44.2545 130.699,-88.0183 196.459,-131.4113 41.387,-27.2998 82.884,-54.4327 124.515,-81.3575 28.329,-18.3249 56.745,-36.5141 85.215,-54.6182 7.187,-4.5886 14.347,-9.2205 21.489,-13.8782 0.305,-0.1956 1.005,-0.6581 1.461,-0.9558 2,-1.3116 4,-2.6233 6,-3.9349 0.282,-0.1917 1.001,-0.6627 1.451,-0.9615 36.063,-23.7985 71.499,-48.5644 105.957,-74.6376 26.376,-20.0238 52.237,-40.7662 76.841,-62.9443 13.848,-12.5336 27.372,-25.469 39.811,-39.4166 6.341,-7.1679 12.497,-14.5471 17.741,-22.5677 2.054,-3.2015 4.011,-6.4897 5.478,-10.0074 -3.195,-8.581 -2.596,-18.4043 1.328,-26.6468 3.813,-8.3 10.414,-14.9726 17.669,-20.3603 7.913,-5.915 16.801,-10.3928 25.951,-14.0528 6.583,-2.8823 12.369,-7.3596 17.236,-12.6116 7.229,-7.6796 13.169,-16.4499 18.849,-25.3036 14.612,-22.973 26.832,-47.3342 40.158,-71.0496 9.213,-16.4127 18.743,-32.6877 29.617,-48.068 8.685,-12.3178 18.277,-23.9949 28.719,-34.864 16.907,-17.6494 35.64,-33.4114 54.539,-48.8625 11.514,-9.4024 23.202,-18.5889 34.797,-27.8903 18.315,-14.9892 35.462,-31.3432 52.181,-48.0771 24.346,-24.4811 47.608,-50.0254 70.057,-76.2525 17.594,-20.6335 34.677,-41.711 50.966,-63.3926 0.22,-0.2873 0.719,-0.9613 1.046,-1.3968 13.903,-18.6813 27.379,-37.7336 39.155,-57.8432 6.683,-11.492 12.383,-23.5391 17.378,-35.8527 7.298,-18.1042 12.788,-36.8866 17.263,-55.8714 1.884,-7.9677 3.601,-15.9742 5.205,-24.0027 0.04,-0.2007 0.23,-1.1761 0.327,-1.6765 1.453,-7.3681 2.8,-14.7572 4.091,-22.1555 0.06,-0.3622 0.204,-1.1832 0.297,-1.7211 1.708,-9.8501 3.341,-19.7156 4.581,-29.63686 2.973,-22.57005 5.547,-45.20394 7.109,-67.91925 0.303,-4.27991 0.53,-8.56475 0.706,-12.85169 -9.424,1.20564 -18.626,3.68765 -27.736,6.32032 -14.729,4.37046 -29.17,9.64352 -43.504,15.15625 -0.214,0.0881 -1.117,0.43653 -1.597,0.62508 -19.911,7.77164 -39.569,16.17687 -59.113,24.82487 -24.795,10.98649 -49.331,22.54293 -73.967,33.87803 -59.358,27.38865 -118.796,54.61025 -178.433,81.38885 -37.886,16.9791 -75.829,33.8426 -114.078,49.9931 -15.861,6.6581 -31.748,13.2753 -47.905,19.189 -7.231,2.6133 -14.527,5.2011 -22.114,6.5718 -8.513,1.374 -17.591,0.061 -25.024,-4.4375 -7.097,-4.2408 -12.482,-11.2609 -14.647,-19.2483 -2.377,-8.3653 -1.149,-17.4877 2.528,-25.2908 3.986,-8.6232 10.128,-15.9942 16.383,-23.0527 3.528,-3.9452 7.286,-7.6746 10.916,-11.5214 7.276,-8.1341 13.713,-16.9703 20.021,-25.862 12.046,-17.1495 23.243,-34.8938 33.597,-53.11396 5.134,-9.11316 9.896,-18.43028 15.001,-27.55996 15.678,-28.5186 32.531,-56.39988 50.754,-83.36722 23.289,-34.57752 48.411,-67.87375 73.952,-100.80731 16.982,-21.89399 34.209,-43.59523 51.523,-65.22712 23.559,-29.59452 46.891,-59.38374 69.194,-89.94187 14.223,-19.52845 28.013,-39.3991 40.565,-60.05058 12.76,-21.04342 24.138,-43.08128 31.872,-66.5009 2.282,-6.94281 4.276,-13.97479 6.349,-20.9813 -2.461,1.51003 -4.906,3.04399 -7.344,4.5918 -0.175,0.10753 -1.009,0.6461 -1.439,0.9203 -14.586,9.37099 -28.807,19.29668 -42.932,29.34562 -31.77,22.70912 -62.881,46.32299 -93.795,70.17939 -1.034,0.80652 -2.266,1.75556 -3.376,2.61687 -1.227,0.94817 -2.603,2.01869 -3.737,2.89094 -14.291,11.09372 -28.532,22.25318 -42.732,33.46289 -0.559,0.4384 -1.36,1.07575 -2.011,1.59051 -15.523,12.27893 -31.015,24.59649 -46.452,36.98176 -21.255,17.07106 -42.608,34.31178 -64.04,51.27484 -49.477,39.25187 -99.381,77.96655 -149.585,116.28372 -43.259,32.99315 -86.734,65.70671 -130.655,97.81257 -20.769,15.12774 -41.59,30.19598 -62.849,44.63118 -8.66,5.86948 -17.449,11.57062 -26.63,16.59766 -8.487,4.74192 -17.232,9.31553 -26.735,11.63635 -8.234,1.96912 -17.048,1.9005 -25.092,-0.87595 -8.733,-2.92833 -16.194,-8.84216 -22.036,-15.8637 -1.979,-2.22832 -3.65,-4.76089 -5.947,-6.68613 -1.254,-0.66726 -2.76,-0.63178 -4.149,-0.74773 -6.824,-0.20988 -13.611,0.84865 -20.306,2.06219 -15.004,2.84734 -29.75,6.88982 -44.405,11.15389 -1.414,0.41485 -2.829,0.82969 -4.243,1.24454 -0.296,0.0921 -1.15,0.34365 -1.66,0.49694 -7.147,2.11705 -14.264,4.33567 -21.375,6.56752 -0.376,0.11575 -1.145,0.36229 -1.671,0.52811 -30.624,9.70344 -61.023,20.09944 -91.39,30.57544 -0.942,0.324 -2.141,0.7437 -3.182,1.1045 -40.289,13.9752 -80.46,28.2136 -120.639,42.5019 -40.818,14.5383 -81.62,29.1196 -122.419,43.7098 -22.891,8.201 -45.757,16.4706 -68.615,24.7599 -87.864,31.8998 -175.702,64.1554 -263.426,96.5467 -72.165,26.6552 -144.289,53.4204 -216.357,80.3355 -80.987,30.2448 -162.041,60.3094 -243.305,89.805 -32.803,11.8726 -65.61,23.7421 -98.613,35.05 -8.456,2.8465 -16.892,5.7888 -25.509,8.1235 -4.582,1.2194 -9.394,1.7066 -14.105,1.0241 -2.782,-0.2293 -5.499,-1.0628 -7.943,-2.4023 -2.123,-0.9479 -4.228,-1.98 -6.258,-3.0923 -3.185,-3.6207 -6.686,-7.1091 -8.719,-11.5543 -3.863,-7.6476 -4.329,-16.6678 -2.397,-24.9247 2.052,-9.0279 6.013,-17.4609 10.015,-25.7587 6.579,-13.4055 13.927,-26.4149 21.336,-39.3742 14.952,-26.0022 30.535,-51.6344 46.195,-77.2138 29.684,-48.4214 59.902,-96.5124 90.153,-144.581 38.053,-60.3977 76.343,-120.64639 114.51,-180.97299 39.78,-62.85224 79.554,-125.76865 119.187,-188.73764 12.598,-20.02738 25.19,-40.05825 37.746,-60.11268 10.042,-16.07013 20.166,-32.26671 30.135,-48.45057 0.984,-1.60762 1.968,-3.21524 2.952,-4.82287 0.196,-0.33201 0.623,-1.02654 0.908,-1.49733 7.873,-13.06872 15.928,-26.03684 24.596,-38.59658 7.09,-10.24723 14.426,-20.35342 22.59,-29.77913 3.964,-4.46292 8.112,-8.82072 12.899,-12.41407 3.181,-5.92042 5.875,-12.08735 8.575,-18.23779 7.311,-16.91713 13.896,-34.13665 20.299,-51.41397 2.647,-7.17666 5.237,-14.37397 7.79,-21.58456 0.128,-0.35445 0.398,-1.1326 0.581,-1.64927 7.503,-21.2529 14.568,-42.65773 21.422,-64.12784 14.502,-44.8664 30.353,-89.33964 48.961,-132.68168 17.1,-39.74594 36.596,-78.58397 60.259,-114.85948 18.846,-28.89377 40.435,-56.0677 65.034,-80.285074 9.384,-9.274926 19.217,-18.087022 29.359,-26.523709 2.901,-2.488017 5.795,-4.98445 8.643,-7.533108 -0.324,0.03646 -0.648,0.07292 -0.972,0.109375 z M 9902.4883,831.46875 c 7.8339,-0.13522 15.8702,1.5685 22.4875,5.89927 5.7752,3.71333 10.3146,9.2757 12.8206,15.66565 2.1063,5.19854 2.6992,10.89244 2.3169,16.45852 -0.1775,2.60842 -0.166,5.23673 -0.7142,7.80558 -1.3398,7.14987 -4.7116,13.68767 -8.0931,20.05414 -6.3156,11.65959 -13.4019,22.87809 -20.502,34.07004 -16.384,25.62297 -33.4794,50.78229 -50.6975,75.84905 -31.3891,45.5856 -63.4645,90.6952 -95.8616,135.5691 -30.2032,41.8096 -60.7585,83.3651 -91.6423,124.6747 -14.6942,19.6757 -29.4529,39.3119 -44.9058,58.4019 -15.4281,19.1196 -31.5178,37.7139 -48.4645,55.5056 -24.9328,26.2113 -51.6339,50.6831 -79.1517,74.1455 -29.6943,25.3486 -60.2696,49.6404 -91.0447,73.6578 -41.5943,32.4161 -83.6614,64.2197 -125.7592,95.9773 -43.9472,33.1011 -88.0311,66.0227 -131.7455,99.4321 -8.6545,6.6087 -17.2893,13.2429 -25.914,19.8904 -1.0347,0.8057 -2.2676,1.7538 -3.3785,2.6143 -9.9376,7.6774 -19.8467,15.3916 -29.7309,23.1376 -0.6694,0.5308 -1.5722,1.2364 -2.3313,1.8343 -27.9721,21.9568 -55.6722,44.2625 -82.9851,67.0349 -0.6037,0.4994 -1.4327,1.1968 -2.123,1.7722 -37.1772,31.0178 -73.6017,62.9273 -109.6114,95.2903 -1.3046,1.1788 -2.7745,2.498 -4.1427,3.7307 -34.4126,30.9808 -68.49,62.3319 -102.505,93.746 -19.3534,17.7743 -38.9078,35.3291 -58.5961,52.7313 -20.492,18.0392 -41.1284,35.9226 -62.2452,53.2294 -8.8402,7.1753 -17.718,14.3247 -27.0341,20.8783 -4.5911,3.1774 -9.3878,6.1479 -14.6581,8.0645 -7.3341,2.7228 -14.8891,4.7951 -22.4232,6.8811 -17.7413,4.7864 -35.642,8.9614 -53.5896,12.896 -15.0843,3.291 -30.2311,6.2852 -45.3956,9.1813 -10.7591,2.0869 -21.5088,4.2217 -32.2541,6.3782 -0.3929,0.083 -1.1765,0.2398 -1.719,0.351 -42.5043,8.5854 -84.8838,17.7922 -127.1072,27.6685 -1.2437,0.289 -2.7259,0.64 -4.0613,0.9528 -15.8768,3.7335 -31.7299,7.5685 -47.5617,11.4886 -0.6157,0.157 -1.5526,0.3879 -2.2915,0.5732 -26.6242,6.6194 -53.1769,13.5256 -79.6558,20.7042 -0.5776,0.1537 -1.4798,0.4029 -2.1819,0.5933 -2.6338,0.7195 -5.4967,1.4962 -7.988,2.1801 -3.4134,0.9414 -6.8268,1.8828 -10.2403,2.8242 -0.5765,0.1575 -1.4774,0.4114 -2.1784,0.6059 -79.7077,22.1388 -158.6821,46.8985 -236.838,74.0064 -7.4933,2.5948 -14.9763,5.2195 -22.4562,7.8526 -0.5623,0.2026 -1.4454,0.5128 -2.1307,0.7567 -2.7002,0.9559 -5.5798,1.9805 -8.1681,2.8937 -42.7881,15.2361 -85.3364,31.143 -127.6553,47.6368 -27.7115,10.7993 -55.3231,21.8547 -82.8447,33.1288 -1.1466,0.4745 -2.5282,1.0392 -3.7651,1.5484 -8.4773,3.4774 -16.9424,6.9844 -25.4029,10.5024 -1.1437,0.4814 -2.5221,1.0538 -3.756,1.5702 -31.6289,13.1919 -63.1317,26.6821 -94.5331,40.4063 -1.0096,0.4389 -2.2592,0.9903 -3.3611,1.4724 -10.4188,4.5618 -20.8242,9.1541 -31.2209,13.7659 -1.3223,0.5921 -2.8625,1.2745 -4.2686,1.9012 -2.9992,1.3363 -6.0141,2.6739 -8.9523,3.9856 -3.2383,1.4487 -6.6108,2.9532 -9.7654,4.3671 -22.7769,10.215 -45.4994,20.551 -68.1797,30.9785 -0.644,0.3011 -1.5738,0.727 -2.3275,1.076 -17.6983,8.1481 -35.3608,16.3735 -53.0046,24.6389 -1.6476,0.7703 -3.4848,1.6357 -5.205,2.4433 -60.2892,28.337 -120.2606,57.3466 -179.9903,86.8438 -39.8876,19.712 -79.8378,39.7085 -119.5915,59.8446 -4.2376,2.1431 -8.4676,4.289 -12.719,6.4405 -26.1815,13.2968 -52.4748,26.8079 -78.8141,39.9605 -55.7049,27.8751 -111.7999,54.9949 -168.5991,80.5762 -37.6246,16.9141 -75.5602,33.179 -114.1311,47.8249 -20.8971,7.8935 -41.9936,15.3141 -63.4753,21.4662 -14.2653,4.049 -28.7321,7.5854 -43.4745,9.3606 -10.2754,1.2005 -20.8286,1.4407 -30.9522,-0.9786 -5.5606,-1.3461 -10.9396,-3.5816 -15.6494,-6.8523 -7.2117,14.4241 -14.4224,28.8487 -21.6328,43.2734 -17.2323,-27.9182 -34.5095,-55.8089 -51.7024,-83.7511 -7.7149,-13.0826 -14.1216,-26.9719 -18.6855,-41.4677 -2.4532,-7.932 -4.362,-16.1475 -4.3571,-24.4909 0.077,-3.7941 0.3619,-7.5826 0.6672,-11.3641 0.5594,-6.6904 2.2318,-13.462 6.0583,-19.0695 2.5767,-3.8838 6.0242,-7.1987 10.0429,-9.5676 0.069,-0.043 0.9624,-0.5921 1.3595,-0.7824 2.6077,-1.3487 5.3862,-2.3958 8.2733,-2.952 8.3246,-1.7683 17.2771,0.1976 24.2572,5.0148 5.879,3.9413 10.1969,9.6585 14.4963,15.1739 1.9488,2.5304 3.8198,5.1252 5.8871,7.5613 5.4831,-0.6372 10.7976,-2.2334 16.0665,-3.8223 6.988,-2.209 13.8811,-4.7056 20.75,-7.2578 0.1598,-0.065 1.1201,-0.4229 1.5905,-0.6016 1.4113,-0.5319 2.8225,-1.0638 4.2337,-1.5957 0.1883,-0.067 1.1189,-0.4289 1.5944,-0.6101 1.408,-0.5408 2.8159,-1.0815 4.2239,-1.6223 0.2975,-0.1204 1.1188,-0.4356 1.6172,-0.6307 11.6778,-4.5563 23.3372,-9.1618 34.9473,-13.8881 12.8531,-5.3125 25.674,-10.7696 37.9815,-17.2674 4.0002,-2.1571 7.9516,-4.4319 11.6454,-7.0868 -6.9527,-11.7548 -12.3218,-24.647 -14.2226,-38.2403 -1.6496,-11.476 -0.616,-23.3161 2.9844,-34.3359 4.1532,-12.8183 11.6615,-24.3273 20.6359,-34.288 3.4083,-3.8308 7.1165,-7.3751 10.8245,-10.9107 3.7656,-3.7459 7.1257,-7.9429 9.6528,-12.6275 -1.3307,-10.4389 1.2041,-21.0896 5.9571,-30.3847 3.8565,-7.61 9.1624,-14.4427 15.3496,-20.2989 -4.7039,-5.6551 -8.9767,-11.8864 -11.0632,-19.0161 -2.8059,-9.2347 -1.5275,-19.6771 3.6771,-27.8385 4.2176,-6.8477 10.9418,-11.8319 18.2533,-14.9852 1.592,-6.4767 1.9008,-13.1786 2.1387,-19.8175 0.1827,-6.7877 0.1102,-13.5802 -0.1133,-20.3661 -10.3787,2.26 -20.4506,5.7291 -30.3623,9.509 -20.239,7.7502 -39.8835,16.9563 -59.3035,26.5514 -26.8602,13.2866 -53.1876,27.6164 -79.3507,42.2186 -21.1842,11.6596 -42.6603,22.8122 -64.6141,32.9584 -8.5035,3.866 -17.0702,7.6427 -25.9274,10.6334 -6.9012,2.3525 -14.3344,3.8768 -21.6151,2.6088 -2.4502,-0.408 -4.8593,-1.0762 -7.1288,-2.0896 -2.7788,-1.0082 -5.2422,-2.682 -7.4981,-4.5649 -7.5737,-6.2078 -12.2602,-15.6282 -13.0749,-25.3485 -0.8435,-9.1757 1.487,-18.3418 5.0608,-26.7346 4.8947,-11.5058 11.6929,-22.0705 18.7458,-32.3501 11.7676,-16.9839 24.7423,-33.088 37.9196,-48.9886 12.6089,-15.1445 25.5651,-29.9959 38.635,-44.7432 -31.7923,16.9344 -63.257,34.4717 -94.946,51.5959 -20.0349,10.7942 -40.1245,21.4972 -60.5085,31.6207 -12.5036,6.1874 -25.1169,12.202 -38.1393,17.2288 -7.8629,2.9984 -15.9693,5.614 -24.369,6.5284 -7.8458,0.8282 -16.0254,-0.2775 -23.0442,-4.0085 -6.7512,-3.5423 -12.228,-9.413 -15.3387,-16.3695 -11.6477,9.5322 -23.4272,18.9206 -35.6618,27.6932 -5.4503,3.8213 -10.9632,7.617 -16.9359,10.586 -6.0497,3.0036 -12.8929,4.6914 -19.6615,3.9278 -7.3197,-0.7135 -14.1492,-3.9271 -20.1783,-8.0078 -7.1968,-4.801 -13.7189,-10.5198 -20.1619,-16.2695 -13.8255,-12.4828 -26.9397,-25.7243 -39.9514,-39.045 -27.2718,-28.0606 -53.7381,-56.8901 -80.0077,-85.8867 -33.6001,-37.1571 -66.7197,-74.7467 -99.5871,-112.5527 -55.4082,-63.7982 -110.0591,-128.2551 -163.8666,-193.409 -32.6813,-39.6087 -65.058,-79.4718 -96.751,-119.8772 -18.248,-23.2812 -36.2733,-46.7448 -53.6193,-70.7084 -8.9448,-12.4195 -17.7508,-24.9593 -25.7308,-38.0269 -4.1666,-6.9191 -8.1845,-14.0203 -10.7442,-21.7133 -2.2124,-6.7536 -2.8921,-14.1958 -0.8417,-21.0758 1.8618,-6.4041 5.8222,-12.1134 10.9707,-16.3219 6.276,-5.178 13.9483,-8.2158 21.5234,-10.9476 10.2281,-3.5778 20.7279,-6.3155 31.26,-8.8329 13.3405,-3.1634 26.8132,-5.74 40.3395,-7.9687 15.0535,-2.6409 30.022,-5.738 44.9926,-8.8073 10.33,-2.1376 20.6462,-4.341 30.9645,-6.5337 0.4001,-0.09 1.1736,-0.2535 1.7166,-0.3715 4.991,-1.0761 9.9819,-2.1521 14.9729,-3.2281 0.5135,-0.1093 1.3682,-0.2985 2.0125,-0.4385 39.9325,-8.6995 79.7953,-17.7159 119.6164,-26.9111 38.9828,-9.0171 78.089,-18.2836 117.0378,-27.738 39.6899,-9.3356 79.4259,-18.4758 119.186,-27.5071 63.2772,-14.3581 126.6159,-28.4461 190.0309,-42.1825 31.4197,-6.7924 62.8543,-13.5189 94.3362,-20.0177 12.5354,-2.5825 25.0821,-5.1074 37.6279,-7.6387 0.3927,-0.084 1.1761,-0.2416 1.7184,-0.3537 6.9179,-1.4133 13.8327,-2.8414 20.7464,-4.2752 22.7389,-4.7257 45.6415,-9.6106 68.4228,-14.494 16.9839,-3.6671 33.9624,-7.359 50.9366,-11.0705 1.9173,-0.4246 4.0367,-0.8884 6.0317,-1.3281 30.2027,-6.6272 60.3817,-13.3614 90.5444,-20.1679 1.6135,-0.3705 3.4457,-0.7826 5.1432,-1.169 48.5998,-10.9976 97.1449,-22.2387 145.5965,-33.8728 25.3552,-5.9016 50.7293,-11.7231 76.1033,-17.5425 81.9117,-18.7651 163.8831,-37.2664 245.9041,-55.5453 67.1002,-14.9461 134.239,-29.7199 201.4495,-44.1622 39.1049,-8.3845 78.2536,-16.5634 117.3411,-25.0295 68.3981,-14.7789 136.9108,-29.9302 205.2337,-45.3916 40.8875,-9.2566 81.7552,-18.6007 122.5587,-28.2207 0.3959,-0.091 1.1682,-0.2776 1.7081,-0.4051 18.4951,-4.3434 36.9097,-9.0187 55.4025,-13.3715 39.2391,-9.2858 78.5597,-18.2226 117.8858,-27.1316 54.8219,-12.4005 109.6848,-24.6172 164.5616,-36.7736 90.8293,-20.1123 181.7038,-40.0219 272.6086,-59.7897 123.5155,-26.8575 247.0815,-53.4796 370.7133,-79.7953 100.6143,-21.3998 201.2609,-42.6465 302.0125,-63.3902 27.3314,-5.62807 54.6777,-11.18406 81.9926,-16.89164 16.3403,-3.38971 32.6694,-6.83294 48.9998,-10.26976 66.3697,-14.01481 132.8123,-28.34271 199.112,-42.93106 2.7832,-0.61151 5.5147,-1.20858 8.2469,-1.81589 26.2395,-5.79704 52.4737,-11.61701 78.6899,-17.51867 14.4225,-3.24894 28.9738,-6.545 43.4365,-9.85338 4.9286,-1.12611 10.0205,-2.29907 15.0138,-3.44371 16.3787,-3.77753 32.9477,-7.63235 49.3794,-11.52958 53.7446,-12.68696 107.4699,-25.45307 161.245,-38.01014 22.2666,-5.17284 44.5358,-10.34807 66.9179,-15.00255 10.6947,-2.1876 21.4215,-4.35743 32.2944,-5.44526 2.2355,-0.20461 4.4777,-0.33634 6.7228,-0.35601 z M 5248.2676,1893.3555 c 14.3135,-0.1004 28.4738,3.9379 41.0455,10.6659 13.5435,7.1849 25.5116,16.9542 36.699,27.3539 15.5772,14.5449 29.814,30.4383 43.8543,46.4482 18.0373,20.7186 35.479,41.9469 52.7519,63.3041 32.1244,39.7966 63.4583,80.2246 94.4527,120.9054 51.3357,67.4447 101.6425,135.6704 151.1148,204.4925 34.064,47.4246 67.7125,95.1522 100.5941,143.4057 18.5719,27.3108 36.9276,54.7755 54.5319,82.7222 8.6775,13.8368 17.2169,27.7767 24.9486,42.1693 3.6494,6.859 7.1358,13.8553 9.5711,21.2496 1.9303,5.9973 2.7201,12.4178 1.7761,18.6738 -1.3259,9.9692 -5.9532,19.2117 -11.8435,27.2527 -8.1489,11.1325 -18.549,20.45 -29.7739,28.3938 -6.6802,4.6197 -13.7106,8.6991 -20.6347,12.9358 -6.8344,4.0433 -13.7308,8.0591 -21.086,11.0914 -7.3053,3.018 -15.3369,4.6939 -23.2404,3.6441 -9.2066,-1.1473 -17.8719,-6.0367 -23.6082,-13.3306 -4.8752,-6.1012 -7.6419,-13.6015 -9.1798,-21.1898 -0.014,-0.8759 -0.8078,0.3145 -1.2001,0.4408 -8.0995,6.1833 -15.7548,12.9237 -23.3196,19.7433 -11.6883,10.619 -22.9379,21.7107 -34.6899,32.2607 -8.8883,7.9736 -17.9229,15.8322 -27.6861,22.7284 -5.9932,4.1459 -12.4274,7.9063 -19.5403,9.7303 -7.0738,1.8309 -14.7491,1.564 -21.5391,-1.2294 -2.7432,-1.0934 -5.3234,-2.5851 -7.6527,-4.3992 -8.6822,11.579 -16.7485,23.6025 -24.6131,35.7469 -15.1528,23.1658 -30.5392,46.2008 -47.0896,68.3989 -14.5892,19.5029 -30.1519,38.4319 -48.2176,54.8407 -11.8301,10.7075 -24.7734,20.1879 -38.6031,28.1512 -4.8933,2.8616 -9.9548,5.4187 -14.9268,8.1364 -10.0736,5.7744 -19.5288,12.5618 -28.7091,19.6531 -7.3935,5.7797 -14.5672,11.8603 -21.2802,18.4224 -4.0099,4.1098 -8.0683,8.175 -12.3415,12.0133 -9.0496,8.1969 -18.7149,15.785 -29.245,21.9977 -7.6611,4.4894 -15.9754,8.1785 -24.827,9.4324 -6.624,0.9052 -13.3968,0.1436 -19.7818,-1.7657 -9.0093,-2.6139 -17.4191,-6.8955 -25.5994,-11.4165 -13.6798,-7.6336 -26.7145,-16.3563 -39.5815,-25.2742 -25.831,-18.0084 -50.8068,-37.2058 -75.5456,-56.6765 -41.6101,-32.8598 -82.3325,-66.8268 -122.6994,-101.1969 -58.7757,-50.1204 -116.6719,-101.2645 -174.025,-153.0049 -77.5508,-70.0036 -154.0711,-141.1469 -229.6573,-213.2665 -54.2879,-51.8095 -108.076,-104.1425 -161.3107,-157.0338 -39.836,-39.4038 -79.614,-78.8709 -118.7779,-118.9446 -19.605,-20.1123 -39.1042,-40.3379 -57.9589,-61.1591 -9.8033,-10.8834 -19.5059,-21.8895 -28.3008,-33.6143 -4.9478,-6.6505 -9.6607,-13.6141 -12.6514,-21.3915 -2.6839,-7.068 -3.4919,-14.9636 -1.5373,-22.3213 1.7829,-6.9487 5.9895,-13.1927 11.6265,-17.6074 6.8621,-5.5541 15.0488,-9.1057 23.1851,-12.3497 12.1368,-4.7443 24.6249,-8.5161 37.1337,-12.1382 23.0135,-6.5877 46.2679,-12.2976 69.5728,-17.7521 48.5629,-11.2936 97.4278,-21.2484 146.4025,-30.5784 54.376,-10.3273 108.9191,-19.7787 163.612,-28.2713 45.6384,-7.0688 91.384,-13.5031 137.2879,-18.5986 19.3351,-2.155 38.7065,-3.9841 58.1069,-5.441 9.5419,-0.7369 19.0796,-1.5253 28.6163,-2.3265 0.3595,-0.029 1.1962,-0.1036 1.7385,-0.15 20.946,-1.7932 41.8767,-3.7664 62.7868,-5.9379 1.025,-0.1111 2.3206,-0.2449 3.4495,-0.3647 1.0566,-0.1104 2.349,-0.2493 3.2615,-0.3423 21.6207,-2.3194 43.2186,-4.8586 64.7715,-7.7441 0.724,-0.095 1.7532,-0.2351 2.5948,-0.3502 4.2446,-0.5732 8.4866,-1.1648 12.7274,-1.7651 0.3733,-0.057 1.1884,-0.1716 1.7309,-0.2507 20.1247,-2.8854 40.2054,-6.1002 60.1793,-9.8977 1.0733,-0.2042 2.7669,-0.5283 3.6586,-0.703 2.413,-0.4732 4.8241,-0.9549 7.234,-1.4435 0.2903,-0.056 1.1756,-0.2422 1.6944,-0.3483 14.1919,-2.9413 28.3326,-6.2003 42.2352,-10.3135 9.3679,-2.8533 18.74,-5.94 27.3902,-10.599 12.5587,-6.3709 25.9344,-11.5733 39.9929,-13.2861 3.299,-0.4046 6.6215,-0.6128 9.9451,-0.6308 z" />
    <path
       d="m 10130,4170 c 0,-5 5,-10 10,-10 6,0 10,5 10,10 0,6 -4,10 -10,10 -5,0 -10,-4 -10,-10 z"
       id="path45"
       style="display:inline" />
  </g>
</svg>
