<?xml version="1.0" standalone="no"?>
<!DOCTYPE svg PUBLIC "-//W3C//DTD SVG 20010904//EN"
 "http://www.w3.org/TR/2001/REC-SVG-20010904/DTD/svg10.dtd">
<svg version="1.0" xmlns="http://www.w3.org/2000/svg"
 width="1280.000000pt" height="1179.000000pt" viewBox="0 0 1280.000000 1179.000000"
 preserveAspectRatio="xMidYMid meet">
<metadata>
Created by potrace 1.15, written by Peter Selinger 2001-2017
</metadata>
<g transform="translate(0.000000,1179.000000) scale(0.100000,-0.100000)"
fill="#000000" stroke="none">
<path d="M2335 11778 c-148 -13 -144 -12 -210 -63 -32 -24 -74 -48 -93 -51
-20 -4 -110 2 -201 12 -288 33 -1030 20 -1281 -22 -205 -35 -416 -118 -479
-189 -50 -57 -43 -69 32 -62 107 10 447 -22 626 -59 310 -64 1048 -348 1125
-432 18 -21 18 -21 -5 -26 -13 -3 -58 -8 -99 -11 -92 -7 -593 -78 -710 -100
-456 -87 -1090 -319 -1030 -379 8 -8 171 -13 538 -16 l527 -5 70 -38 c145 -78
193 -128 181 -188 -5 -24 -2 -30 19 -35 15 -4 25 -13 25 -24 0 -22 25 -44 73
-64 29 -12 39 -22 44 -46 6 -32 8 -34 55 -44 39 -9 60 -55 59 -128 -1 -69 8
-72 62 -20 l39 37 -17 -40 c-9 -22 -18 -70 -18 -107 -2 -55 2 -72 20 -97 18
-23 23 -44 23 -89 0 -65 25 -151 46 -159 11 -4 14 -28 14 -97 -1 -137 -15
-225 -61 -365 -45 -136 -65 -274 -35 -237 9 11 16 25 16 32 0 17 27 37 34 25
4 -6 -1 -79 -10 -163 -18 -165 -11 -312 21 -463 17 -82 105 -358 146 -462 17
-43 43 -151 64 -265 46 -252 86 -416 125 -513 17 -43 40 -117 51 -163 11 -47
29 -107 39 -133 11 -27 31 -95 45 -151 41 -163 103 -348 143 -428 94 -187 134
-260 142 -260 5 0 13 7 18 16 7 13 13 10 33 -22 13 -22 44 -68 70 -104 26 -36
84 -132 129 -213 46 -82 99 -168 119 -192 167 -202 279 -324 495 -541 139
-139 282 -272 321 -299 39 -27 131 -95 205 -150 218 -163 260 -191 399 -264
145 -77 518 -330 591 -401 52 -50 140 -176 140 -200 0 -15 -157 -175 -305
-311 -39 -35 -173 -147 -298 -249 -287 -233 -292 -237 -363 -285 -32 -22 -77
-59 -100 -82 -22 -23 -52 -45 -67 -48 -15 -4 -32 -15 -37 -25 -5 -9 -40 -32
-77 -51 l-68 -34 -157 3 c-124 2 -178 -2 -258 -18 -56 -11 -121 -20 -145 -20
-54 0 -201 -71 -269 -131 -106 -93 -184 -335 -157 -484 75 -412 716 -667 1986
-789 645 -63 1353 -90 2690 -105 1567 -18 2074 -29 2500 -55 l210 -13 142 -96
c344 -231 749 -454 919 -507 77 -23 107 -25 122 -7 9 10 1 22 -32 50 -82 68
-138 167 -195 345 -28 88 -58 162 -65 165 -8 3 -31 34 -52 69 -21 35 -127 203
-236 375 -196 309 -244 390 -236 398 2 2 165 -57 363 -131 198 -74 459 -170
580 -213 397 -142 419 -148 445 -116 11 14 17 13 46 -4 45 -27 250 -181 399
-301 181 -146 285 -220 306 -220 23 0 23 1 4 65 -18 60 -57 119 -163 251 -93
117 -128 168 -171 249 -18 33 -46 75 -63 93 -20 20 -27 32 -17 32 15 0 160
-64 389 -170 142 -66 206 -83 215 -58 3 8 -1 61 -9 117 -12 75 -24 118 -46
160 -39 73 -158 211 -230 268 -91 72 -103 86 -150 173 -35 65 -52 86 -78 97
-18 7 -30 18 -27 23 21 33 -105 148 -294 268 -219 139 -548 361 -606 409 -33
27 -96 74 -140 103 -167 112 -393 297 -527 432 -108 109 -148 143 -194 163
-43 19 -82 51 -163 133 -59 60 -167 152 -243 210 -76 56 -138 108 -138 115 0
7 18 31 41 52 91 89 91 138 0 314 -33 66 -61 125 -61 131 0 16 31 12 110 -15
83 -28 120 -32 120 -11 0 7 -35 71 -77 142 -192 318 -461 630 -829 962 -116
104 -181 183 -247 297 -25 44 -59 94 -74 111 -43 48 -302 285 -356 326 -27 21
-114 106 -193 190 -259 274 -332 334 -579 473 -148 84 -186 109 -303 202 -112
90 -178 167 -261 310 -155 264 -350 587 -448 741 -115 181 -413 587 -523 712
-85 96 -266 256 -428 378 -67 51 -170 135 -229 188 -159 141 -448 358 -611
460 -171 107 -188 121 -196 171 -4 21 -15 67 -26 103 -10 36 -23 94 -29 130
-8 47 -29 102 -80 200 -38 74 -88 187 -111 250 -22 63 -66 167 -97 230 -30 63
-72 156 -93 207 -57 138 -117 237 -230 383 -91 117 -115 140 -219 216 -258
189 -585 310 -941 349 -172 19 -502 26 -645 13z m3001 -8759 c16 -17 45 -39
64 -49 45 -23 73 -53 135 -148 47 -73 73 -91 67 -48 -2 14 16 2 58 -38 62 -59
83 -66 88 -28 4 27 6 27 48 1 19 -12 34 -29 34 -40 0 -34 -330 -494 -478 -666
-70 -81 -94 -93 -142 -68 -42 22 -168 42 -337 55 -187 14 -589 92 -616 119 -8
8 47 68 209 228 361 359 771 713 823 713 10 0 30 -14 47 -31z m1248 -167 c10
-2 23 1 29 7 9 9 6 13 -11 17 -27 8 -29 24 -3 24 53 0 208 -64 430 -177 632
-323 1017 -468 1481 -557 47 -9 95 -21 107 -26 12 -5 79 -62 150 -127 186
-172 252 -227 456 -380 281 -211 326 -250 420 -376 129 -172 267 -370 267
-386 0 -16 18 -19 -270 49 -118 28 -334 75 -480 105 -373 76 -1162 248 -1305
284 -66 16 -259 60 -430 96 -170 36 -422 93 -560 125 -137 33 -320 73 -405 90
-85 17 -276 59 -425 94 -148 36 -303 70 -342 76 -40 7 -73 17 -73 22 0 42 550
688 586 688 6 0 42 -28 80 -61 80 -71 112 -94 121 -86 11 12 -29 59 -63 73
-19 8 -34 16 -34 18 0 3 -3 11 -6 20 -11 28 17 18 157 -59 188 -103 197 -101
90 19 -70 79 -99 122 -88 132 3 3 45 -16 94 -43 98 -55 163 -83 193 -83 17 0
20 7 20 45 0 32 -5 47 -15 52 -14 5 -14 7 -1 22 14 15 14 19 -4 34 -11 9 -17
22 -14 30 2 7 -7 24 -21 37 -28 26 -31 50 -13 80 17 27 1 41 -83 74 -78 31
-88 32 -105 9 -13 -17 -13 -17 -14 2 0 11 9 35 21 54 l21 34 12 -24 c6 -13 20
-25 30 -27z"/>
<path d="M10130 4170 c0 -5 5 -10 10 -10 6 0 10 5 10 10 0 6 -4 10 -10 10 -5
0 -10 -4 -10 -10z"/>
</g>
</svg>
