<?xml version="1.0" encoding="UTF-8" standalone="no"?>
<svg
   xmlns:dc="http://purl.org/dc/elements/1.1/"
   xmlns:cc="http://creativecommons.org/ns#"
   xmlns:rdf="http://www.w3.org/1999/02/22-rdf-syntax-ns#"
   xmlns:svg="http://www.w3.org/2000/svg"
   xmlns="http://www.w3.org/2000/svg"
   xmlns:sodipodi="http://sodipodi.sourceforge.net/DTD/sodipodi-0.dtd"
   xmlns:inkscape="http://www.inkscape.org/namespaces/inkscape"
   version="1.1"
   id="Layer_1"
   x="0px"
   y="0px"
   viewBox="0 0 1126.06 1694.386"
   enable-background="new 0 0 1126.06 1694.386"
   xml:space="preserve"
   sodipodi:docname="spider_inset.svg"
   inkscape:version="1.0.1 (3bc2e813f5, 2020-09-07)"><metadata
   id="metadata9"><rdf:RDF><cc:Work
       rdf:about=""><dc:format>image/svg+xml</dc:format><dc:type
         rdf:resource="http://purl.org/dc/dcmitype/StillImage" /></cc:Work></rdf:RDF></metadata><defs
   id="defs7" /><sodipodi:namedview
   pagecolor="#ffffff"
   bordercolor="#666666"
   borderopacity="1"
   objecttolerance="10"
   gridtolerance="10"
   guidetolerance="10"
   inkscape:pageopacity="0"
   inkscape:pageshadow="2"
   inkscape:window-width="1920"
   inkscape:window-height="1017"
   id="namedview5"
   showgrid="false"
   inkscape:zoom="0.50165665"
   inkscape:cx="563.03003"
   inkscape:cy="847.19299"
   inkscape:window-x="-8"
   inkscape:window-y="-8"
   inkscape:window-maximized="1"
   inkscape:current-layer="Layer_1" />
<path
   id="path2"
   d="m 745.79297,92.818359 c 18.74694,48.913481 37.34613,97.882791 55.88867,146.873051 0.57557,10.54206 -1.09751,21 -1.60055,31.49052 -0.10462,1.71826 -0.0973,3.65254 -0.15163,5.47887 -2.49348,41.42047 -5.06581,82.83645 -7.79787,124.24189 -0.80811,11.71392 -1.53836,23.43497 -2.56248,35.132 -0.1384,1.38139 -0.19136,2.8013 -0.84614,4.0594 -20.46869,52.25209 -40.82124,104.55033 -61.1907,156.84019 -3.39174,8.57883 -6.66198,17.20901 -10.28735,25.69287 -0.99897,2.25134 -1.98546,4.62635 -3.91289,6.25762 -25.73747,32.33917 -51.37724,64.7481 -77.04643,97.13682 -2.96651,3.65855 -5.81114,7.42548 -8.97526,10.91748 -0.89128,1.09551 -2.22252,1.59351 -3.50861,2.05337 -0.7038,0.56763 -0.86312,-0.45395 -1.21966,-0.89991 -3.32966,-5.84954 -8.15248,-10.62295 -12.1729,-15.97469 -0.45603,-0.48327 0.66323,-0.85064 0.89142,-1.28356 5.77852,-5.36373 11.02385,-11.67964 13.54816,-19.25821 0.48033,-1.38683 0.94937,-2.84355 0.62977,-4.32607 -0.71019,-3.74434 -3.02812,-6.9222 -5.36042,-9.83728 -4.50745,-5.35991 -9.84766,-10.00072 -15.63585,-13.92945 -0.52866,-0.35625 -1.06968,-0.69314 -1.61311,-1.02624 1.75469,4.77588 4.13581,9.4943 4.33819,14.67093 0.21074,4.35109 -1.69493,8.52936 -4.41581,11.83261 -3.04014,3.7297 -6.82118,6.77812 -10.70558,9.57849 -1.88904,1.13207 -4.11367,0.29149 -6.05404,-0.23297 -2.43876,-0.70758 -4.94203,-1.40092 -7.32631,-1.97847 -3.60232,-0.86759 -7.22647,-1.68949 -10.87428,-2.32066 -6.00779,-0.17772 -12.04161,-0.20768 -18.01686,0.53015 -1.36673,0.17188 -2.96116,0.40555 -4.40382,0.68069 -3.34841,0.60623 -6.61566,1.58808 -9.80395,2.76292 -2.06232,0.67284 -4.38064,1.47232 -6.48754,0.50366 -1.44612,-0.78439 -2.73058,-1.8514 -4.04731,-2.83704 -4.45041,-3.50143 -8.54275,-7.95054 -10.06517,-13.53724 -1.23299,-4.37529 -0.48031,-9.04766 1.14425,-13.21504 0.77313,-2.05584 1.73141,-4.03023 2.58151,-6.05131 -6.0599,3.98581 -11.7282,8.64934 -16.47866,14.14779 -2.63021,3.15835 -5.17875,6.65179 -6.01217,10.7584 -0.26395,1.23802 -0.23893,2.52939 0.26944,3.70258 1.95971,6.06971 5.58316,11.52049 10.12525,15.9661 1.21034,1.36926 2.78039,2.75372 2.80513,4.73177 0.0604,0.82691 -0.16526,1.61879 -0.69953,2.25774 -1.73694,2.46506 -4.15614,4.34588 -5.96728,6.75483 -2.93362,3.75438 -5.22464,7.94901 -7.89374,11.88587 -1.68356,-0.0376 -3.56882,-0.27002 -4.75781,-1.58985 -25.57666,-32.48524 -51.25805,-64.88696 -77.07699,-97.18028 -3.5454,-4.51092 -7.2225,-8.92418 -10.55852,-13.59474 -1.62765,-2.17995 -2.31358,-4.84741 -3.35846,-7.31831 -17.77355,-45.54998 -35.71348,-91.03475 -53.56854,-136.55237 -4.87739,-12.56806 -9.86234,-25.101 -14.33306,-37.82186 -1.52396,-4.60185 -3.2032,-9.23426 -3.62555,-14.09723 -0.24815,-3.64754 0.42754,-7.27817 0.36673,-10.9273 0.0107,-8.02812 -1.09628,-16.00123 -2.18061,-23.93797 -2.22434,-35.51877 -4.35927,-71.04314 -6.52932,-106.56528 -0.8773,-14.59402 -1.79614,-29.18812 -2.64754,-43.7821 0.282,-2.48148 1.1809,-4.84426 1.8983,-7.22409 3.76562,-11.44709 7.99567,-22.7339 12.16877,-34.03679 14.5653,-39.0512 29.65607,-77.90754 44.51271,-116.85105 1.12336,-2.948284 2.25501,-5.893397 3.36958,-8.845001 -4.19655,9.530915 -8.226,19.135831 -12.35148,28.698211 -15.31038,35.74544 -30.79546,71.41498 -46.22816,107.10907 -3.26026,7.66604 -6.61208,15.23952 -9.58595,23.03421 -1.04633,2.98439 -2.42694,6.06784 -1.98676,9.30695 0.3018,2.35852 0.26614,4.73757 0.29259,7.10766 2.01245,38.12109 4.15283,76.23893 6.28606,114.35928 1.31325,22.91137 2.55515,45.82742 4.02967,68.72909 0.0933,1.26611 0.0767,2.55658 0.62089,3.73258 11.54414,34.22447 22.86969,68.53511 34.15422,102.83685 5.93319,17.89022 11.75608,35.77979 18.18778,53.49313 2.05974,5.63346 4.19492,11.23789 6.46165,16.74341 4.74571,11.61817 10.37339,22.87204 16.82286,33.63804 8.45133,14.14104 17.74932,27.74919 26.87216,41.45942 15.37161,22.92228 30.60698,45.93515 45.59448,69.11086 0.33135,0.51062 0.6627,1.02124 0.99405,1.53186 -2.29473,-0.99316 -4.66318,-1.82974 -6.90938,-2.92605 -6.38049,-3.65971 -12.58414,-7.61708 -18.84343,-11.47819 -32.3929,-20.22749 -64.6192,-40.71845 -96.85809,-61.19385 -4.68483,-3.00464 -9.41804,-5.94 -14.07269,-8.98784 -2.10821,-2.21609 -3.82296,-4.77092 -5.65489,-7.21277 -9.64354,-13.28711 -18.95954,-26.80736 -28.31684,-40.29633 -32.87185,-47.61133 -65.38635,-95.46935 -97.86453,-143.35054 -6.12267,-9.03431 -12.24353,-18.06885 -18.35124,-27.11302 -0.5954,-6.9478 -0.7218,-13.92537 -1.02061,-20.89004 -1.19838,-34.73296 -2.04937,-69.47817 -2.89191,-104.22186 -0.24159,-10.49515 -0.49372,-20.99006 -0.71053,-31.48576 -1.7914,43.43419 -3.23768,86.88208 -5.07261,130.31453 -0.43337,8.96452 -0.71945,17.94017 -1.45388,26.88645 -0.0849,0.72087 -0.11456,1.47386 -0.47546,2.12324 1.01161,2.3974 2.44059,4.62935 3.71197,6.82206 6.72721,11.17267 13.70959,22.18945 20.62505,33.24596 36.86124,58.64782 73.7643,117.27087 110.55092,175.96567 1.28732,1.97367 2.43689,4.04379 3.81213,5.95609 2.80548,3.24214 6.13767,5.97411 9.36957,8.77414 9.49048,8.00439 19.40674,15.67802 29.26932,23.2919 29.03261,22.2907 58.5479,43.94268 87.81174,65.92551 5.6316,4.29251 11.35191,8.48407 16.69695,13.13586 -31.46648,21.26045 -62.9339,42.52261 -94.5685,63.53409 -7.75159,5.1031 -15.4488,10.29498 -23.34361,15.1749 -1.00883,0.58902 -2.06972,1.34897 -3.30273,1.0996 -6.43617,-0.55201 -12.83004,-1.50991 -19.23209,-2.35663 -33.49831,-4.65045 -66.93839,-9.71139 -100.39321,-14.66762 -14.99352,-2.20657 -29.97231,-4.51764 -44.98638,-6.58052 -2.08552,-0.37439 -4.22193,-0.10853 -6.30434,-0.46749 -3.27009,-0.71721 -5.93075,-2.91063 -8.5718,-4.83976 -7.40358,-5.7843 -14.41872,-12.04371 -21.50074,-18.21167 -21.23498,-18.6869 -42.325316,-37.53601 -63.492226,-56.30145 -5.886794,-5.23097 -11.780224,-10.45447 -17.67156,-15.68032 19.252488,20.31054 38.813575,40.3259 58.409666,60.30444 14.3824,14.59543 28.73585,29.16124 43.33508,43.54027 2.83236,2.7371 5.60806,5.53877 8.5658,8.14161 8.34214,1.15078 16.62529,2.68621 24.92538,4.10152 42.35361,7.4383 84.62531,15.34373 127.00735,22.62165 6.71568,1.1339 13.432,2.27176 20.17469,3.23582 1.12943,0.13363 2.50687,0.34657 3.74032,0.44937 0.96858,0.23422 1.7352,-0.5726 2.5968,-0.88096 33.84345,-16.6722 67.52458,-33.67303 101.3791,-50.32049 5.47366,-2.65132 10.89958,-5.41838 16.55034,-7.68064 0.62404,-0.26201 1.24808,-0.52402 1.87211,-0.78603 -1.08273,1.92235 -1.99618,3.94792 -3.19018,5.80258 -3.98801,5.31941 -8.25061,10.42761 -12.42005,15.60515 -22.76454,27.88957 -45.73571,55.60439 -68.68656,83.34142 -35.87474,43.37539 -71.86167,86.65737 -107.62488,130.12427 -6.01061,7.3628 -12.10082,14.6637 -17.94239,22.1621 -0.43834,0.9301 -0.50731,2.0276 -0.8024,3.0226 -20.64244,88.3126 -41.37641,176.6032 -62.39827,264.8244 -2.27515,9.6863 -4.66092,19.3483 -6.78155,29.0698 -0.11418,0.7903 -0.42298,1.621 -0.35938,2.3974 42.18296,65.5305 84.27087,131.122 126.38272,196.6981 4.56418,7.0976 9.12745,14.1956 13.71162,21.2803 -29.73153,-49.876 -59.54537,-99.705 -89.23928,-149.6031 -9.92338,-16.7647 -19.94258,-33.4741 -29.53115,-50.4336 -2.65198,-4.817 -5.43452,-9.5881 -7.54793,-14.6742 -0.80767,-2.0101 -1.49732,-4.4213 -0.32431,-6.4356 0.87736,-1.4871 0.99531,-3.2547 1.48681,-4.8823 23.43946,-94.8022 47.06059,-189.5594 70.53086,-284.354 2.03124,-2.1648 4.35712,-4.0311 6.54737,-6.0308 22.16341,-19.5028 44.53988,-38.7587 66.90185,-58.0356 21.32451,-18.3105 42.63073,-36.6428 64.17832,-54.69005 3.36657,-2.75767 6.65605,-5.62041 10.17128,-8.18887 1.12852,-0.64829 2.25929,-1.29268 3.38868,-1.93946 -0.0117,3.56717 -0.16164,7.12984 -0.43417,10.68646 -0.56809,7.8555 -0.53988,15.79142 0.71346,23.58312 0.21621,1.0725 0.32665,2.3905 0.44053,3.5695 0.58586,5.7758 1.53632,11.7634 2.79491,17.5546 1.8289,8.4709 4.38443,16.893 7.50089,24.9052 9.09086,23.429 23.63348,45.0512 42.25742,62.1287 4.53377,4.1681 9.35175,8.1019 14.2939,11.6724 4.65871,3.3766 9.5318,6.5046 14.48862,9.3157 4.65252,2.6411 9.44368,5.0373 14.34287,7.1859 5.31403,2.3272 10.94261,4.4261 16.5586,6.1601 3.88328,1.2011 7.67966,2.2203 11.65382,3.1285 3.45236,0.7544 6.91281,1.5329 10.42009,1.9749 10.59115,0.9667 21.27446,2.6756 31.90851,1.2716 2.6399,-0.3524 5.31397,-0.3908 7.95831,-0.7265 4.89388,-0.5252 9.80687,-1.3196 14.55579,-2.3362 15.65839,-3.343 30.86373,-9.3382 44.73619,-17.4531 3.45031,-2.0115 7.05351,-4.3138 10.32784,-6.5896 10.74218,-7.4625 20.51801,-16.2933 29.1621,-26.1035 12.00783,-13.6437 21.74254,-29.4885 28.60107,-46.3864 4.94187,-12.1263 8.48654,-24.8174 10.60206,-37.7386 0.13073,-0.8091 0.26757,-1.6634 0.38235,-2.4983 0.58552,-3.9168 1.036,-7.9148 1.3332,-11.788 0.2329,-2.7841 0.30291,-5.755 0.68289,-8.59655 1.71775,0.42313 3.51328,0.52845 5.18554,1.11914 1.53895,0.66711 2.61572,2.02991 3.92452,3.03571 34.23423,29.5949 68.56022,59.0839 102.92705,88.5229 5.78558,5.0187 11.66678,9.9323 17.28027,15.1451 1.40519,1.4121 3.2219,2.8996 3.22206,5.074 1.23424,5.2372 2.60618,10.4513 3.88981,15.6804 17.56191,70.3321 35.09382,140.6769 52.28692,211.1017 4.80178,19.8468 9.69319,39.6718 14.17794,59.5931 0.4988,2.5104 1.19373,4.9965 1.4262,7.5502 -0.0306,1.0659 -0.88695,1.845 -1.32541,2.7696 -33.02911,55.5054 -66.03222,111.0261 -98.89932,166.6226 -7.38081,12.4933 -14.75657,24.9889 -22.1034,37.5023 39.76846,-62.0746 79.63924,-124.0811 119.76626,-185.9241 4.65405,-7.2005 9.37073,-14.4018 13.89377,-21.6045 0.68097,-1.1388 1.42447,-2.2498 1.96693,-3.4635 -8.85808,-37.6523 -17.7719,-75.2934 -26.62812,-112.9468 -14.61664,-62.0282 -29.21825,-124.06 -43.89141,-186.0747 -3.77683,-4.9632 -7.74128,-9.6966 -11.67259,-14.5418 -22.18447,-27.0499 -44.54449,-53.9574 -66.85506,-80.8978 -34.20018,-41.28078 -68.46076,-82.50962 -102.43867,-123.97122 -7.72173,-9.48726 -15.51024,-18.9236 -23.00972,-28.58814 -1.1315,-1.52293 -2.41432,-2.99032 -2.99415,-4.83295 -0.40186,-0.9701 -0.80373,-1.94021 -1.20559,-2.91031 2.52161,0.87765 5.08267,1.66491 7.46861,2.88244 13.60025,6.45291 27.0717,13.17154 40.56799,19.83747 23.77294,11.76907 47.50558,23.61072 71.23293,35.4715 0.44259,0.38476 0.93089,0.64496 1.53665,0.52198 4.50935,-0.28165 8.96049,-1.1317 13.42207,-1.81004 20.74651,-3.4611 41.43906,-7.23001 62.16658,-10.93944 33.6821,-6.06094 67.3592,-12.14958 101.03681,-18.23539 6.96365,-6.69267 13.72073,-13.59728 20.55468,-20.42188 26.6921,-26.91158 53.2759,-53.93168 79.6227,-81.18176 4.3015,-4.47028 8.614,-8.93007 12.8871,-13.42761 -14.4526,12.58927 -28.5948,25.55016 -42.8456,38.39201 -15.8498,14.29027 -31.6802,28.61551 -48.03657,42.33074 -6.12289,5.05259 -12.25123,10.13811 -18.88893,14.51036 -2.32413,1.43767 -4.74122,3.02569 -7.5478,3.217 -56.13706,8.23909 -112.27624,16.46369 -168.40965,24.72762 -1.81399,-0.59629 -3.34159,-1.80784 -4.9819,-2.75399 -12.67882,-8.06872 -25.1639,-16.43427 -37.68394,-24.74455 -24.77122,-16.55196 -49.50688,-33.1631 -74.02796,-50.08476 -3.95012,-2.79003 -7.99092,-5.46473 -11.78667,-8.46552 -0.62039,-0.62502 -1.24514,-1.24575 -1.86718,-1.86914 36.48261,-27.64924 73.01921,-55.21779 109.67073,-82.6428 9.67685,-7.29012 19.43731,-14.47213 28.9814,-21.93634 2.34128,-1.93562 4.87978,-3.73084 6.7162,-6.18412 1.41319,-2.30411 2.79598,-4.62876 4.2617,-6.902 33.86727,-53.96185 67.83288,-107.86121 101.7687,-161.77847 8.94921,-14.26877 17.94011,-28.46904 26.70508,-42.8521 2.43346,-4.09932 5.00546,-8.13757 7.03095,-12.46003 0.30738,-0.7118 0.66689,-1.5133 0.25782,-2.26368 -0.38926,-1.7414 -0.29422,-3.55637 -0.45393,-5.33009 -0.98738,-20.54534 -1.66753,-41.10502 -2.47764,-61.65824 -1.07274,-27.77157 -2.09304,-55.54619 -3.47273,-83.30463 -1.51185,42.37257 -2.45667,84.77207 -3.64117,127.16504 -0.20953,6.41652 -0.3175,12.83828 -0.68594,19.24782 0.0432,1.80801 -1.12704,3.28253 -2.01734,4.75295 -6.0674,9.25367 -12.38313,18.34253 -18.60975,27.49001 -41.75605,61.0261 -83.48939,122.0676 -125.15322,183.15668 -1.40146,1.62358 -3.2595,2.77104 -4.95987,4.05447 -9.75413,6.89672 -19.79128,13.38217 -29.79714,19.90459 -26.03388,16.86264 -52.24967,33.44168 -78.5943,49.81324 -6.95172,4.25682 -13.83352,8.63424 -20.92213,12.66129 -1.60808,0.77627 -3.28877,1.39701 -4.92578,2.11133 0.70984,-1.88409 1.21031,-3.85614 2.06054,-5.68164 2.74061,-4.63468 5.78009,-9.08688 8.69214,-13.61408 23.36257,-35.70305 46.83807,-71.3374 70.22868,-107.02368 1.52477,-2.52448 2.29179,-5.4047 3.32947,-8.14425 5.73837,-16.48959 11.29598,-33.0397 16.94008,-49.57002 14.26072,-41.95563 28.57655,-83.89235 42.87769,-125.83407 1.27544,-4.13673 2.76434,-8.21974 3.72132,-12.44639 0.55494,-2.84183 0.0861,-5.7467 0.18115,-8.61712 0.0525,-9.33601 0.99862,-18.63518 1.86232,-27.92158 2.2733,-43.2305 4.52991,-86.46257 6.81364,-129.69209 0.53162,-4.45194 1.1596,-8.89412 1.5332,-13.36329 0.0567,-0.82598 0.13081,-1.92457 0.15041,-2.86309 0.2647,-6.00753 -1.13698,-11.93732 -3.06784,-17.58571 -2.67376,-7.84226 -5.95701,-15.37595 -9.21079,-23 -9.27506,-21.32802 -18.77088,-42.5597 -28.03023,-63.89372 -10.1555,-23.32067 -20.16314,-46.7067 -30.04272,-70.145757 1.91016,4.980469 3.82031,9.960938 5.73047,14.941406 z m 42.07226,812.136721 c -0.0714,-0.0794 -0.0326,0.002 0,0 z" />
</svg>
